<?xml version="1.0" standalone="no"?>
<!DOCTYPE svg PUBLIC "-//W3C//DTD SVG 1.1//EN" "http://www.w3.org/Graphics/SVG/1.1/DTD/svg11.dtd" >
<svg xmlns="http://www.w3.org/2000/svg" xmlns:xlink="http://www.w3.org/1999/xlink" version="1.1">
<metadata>
Created by FontForge 20201107 at Mon Jul 13 05:16:47 2020
 By Unknown
</metadata>
<defs>
<font id="SplitOnRegular" horiz-adv-x="714" >
  <font-face 
    font-family="Split On"
    font-weight="400"
    font-stretch="normal"
    units-per-em="1000"
    panose-1="0 0 0 0 0 0 0 0 0 0"
    ascent="800"
    descent="-200"
    x-height="699"
    cap-height="700"
    bbox="-208 -205 1430 934"
    underline-thickness="0"
    underline-position="0"
    unicode-range="U+000A-F018"
  />
<missing-glyph horiz-adv-x="527" 
d="M50 700h427v-700h-427v700zM78 680l185 -309l186 309h-371zM251 350l-180 300v-601zM264 329l-185 -308h370zM276 350l181 -303v605z" />
    <glyph glyph-name="(J.liga" unicode="&#x28;J" horiz-adv-x="1148" 
d="M867 369l-802 -1l851 35v302h119v-271v-7v-45l38 -13h-206zM827 320h256v-58v-7v0q-1 -61 -29 -115.5t-76 -92.5l-13 -10v1q-70 -49 -154 -49q-76 0 -141 40t-101 108l-6 12h141l3 -2q42 -39 100 -39h9q58 0 101 40t48 98v30l-35 10l-865 36l763 -2h-1z" />
    <glyph glyph-name="(Z.liga" unicode="&#x28;Z" horiz-adv-x="1397" 
d="M65 368l876 36l176 178h-423v119h588v-119v-1l-193 -195l48 -16h-63h-1h-166zM911 108h421v-118h-588v118v0l2 3l174 175l-855 36l757 -2l-4 1h304z" />
    <glyph glyph-name="C).liga" unicode="C&#x29;" horiz-adv-x="1192" 
d="M260 320l867 2l-864 -36q11 -68 59 -116q62 -62 150 -62h117v-118h-108h-8h-1.5h-1.5h-5q-122 3 -212 84t-107 200l-75 21h72v1l-142 24h259zM93 369h-52l53 20q6 84 49.5 154.5t116 112.5t156.5 44h6h1h1h8h108v-118h-116q-88 0 -150 -62q-48 -48 -59 -114l912 -38
l-881 1h1h-35h-119z" />
    <glyph glyph-name="G).liga" unicode="G&#x29;" horiz-adv-x="1422" 
d="M547 320l810 2l-670 -22v-38q0 -113 -80 -193t-192.5 -80t-192.5 80t-80 193v13l-70 20h70v1l-140 24h258h67h-2h222zM419 106q48 0 87 28.5t54 74.5h-125v75l-24 6l-151 -4v-30q0 -62 44 -106t105 -44h10zM79 369h-37l51 19v40q0 112 80 192t193 80q66 0 123.5 -29
t95.5 -81t49 -118l2 -9h-120l-1 6q-13 50 -53.5 81.5t-91.5 31.5h-9q-62 0 -106 -44t-44 -106v-27l1146 -37l-1110 1h1h-37h-118h-14z" />
    <glyph glyph-name="K).liga" unicode="K&#x29;" horiz-adv-x="1245" 
d="M303 320l876 2l-843 -35l300 -299h-168l-207 208v-208h-119v289l-65 18h65v2l-135 23h295h1zM94 369h-47l47 18v312h118v-208l208 208h167l-294 -294l886 -37l-879 1h2h-44h-1h-163z" />
    <glyph glyph-name="L).liga" unicode="L&#x29;" horiz-adv-x="1191" 
d="M1125 322l-861 -36v-179h311v-118h-311v-1h-119v287l-69 20h69v1l-139 24h258zM97 369h-51l51 19v311h118v-293l910 -38l-874 1h1h-37h-118z" />
    <glyph glyph-name="(T.liga" unicode="&#x28;T" horiz-adv-x="1322" 
d="M718 699h539v-118h-210v-200l37 -13h-37h-118h-51l1 1l-814 -2l864 36v178h-211v118zM838 320h257v-331h-118v286l-34 10l-878 36l774 -1h-1z" />
    <glyph glyph-name="(X.liga" unicode="&#x28;X" horiz-adv-x="1495" 
d="M907 369l-842 -2l855 36l-250 297h155l201 -240l201 240h154l-269 -321l29 -10h-37h-156h-41zM1152 320l278 -332h-155l-201 240l-201 -240h-154l244 291l-23 6l-875 36l773 -1h-4h318z" />
    <glyph glyph-name="(Y.liga" unicode="&#x28;Y" horiz-adv-x="1348" 
d="M857 369l-792 -2l835 35l-5 10l-242 288h155l160 -192l160 192h155l-241 -288l-15 -28v-4l36 -11h-36v-1h-118v1h-52zM817 320h259v-332h-119v287l-39 11l-853 35l753 -1h-1z" />
    <glyph glyph-name="T).liga" unicode="T&#x29;" horiz-adv-x="1368" 
d="M443 320l860 1l-860 -36v-296h-119v286l-68 19h68v2l-138 24h257zM276 387v194h-211v118h539v-118h-210v-176l909 -38l-873 2l2 -1h-38h-118h-50z" />
    <glyph glyph-name="X).liga" unicode="X&#x29;" horiz-adv-x="1464" 
d="M546 320l853 1l-825 -34l251 -299h-155l-201 240l-201 -240h-155l244 291l-58 16h72l1 1l-143 24h318h-1zM269 369l56 21l-260 310h155l201 -240l201 240h154l-248 -296l871 -37l-863 2h-37h-1h-155h-74z" />
    <glyph glyph-name="Y).liga" unicode="Y&#x29;" horiz-adv-x="1406" 
d="M488 320l853 1l-853 -35v-298h-119v287l-70 19h70v2l-140 24h259zM319 388l-13 24l-241 288h154l161 -192l160 192h155l-242 -288l-3 -8l891 -37l-868 2h2h-36v-1h-118v1h-53z" />
    <glyph glyph-name="Z).liga" unicode="Z&#x29;" horiz-adv-x="1407" 
d="M1342 321l-884 -36l-176 -178h421v-119h-588v119v0l2 2l175 176l-33 9h41l6 6l-117 20h304zM306 398l182 183h-423v118h588v-118v-1l-174 -177l863 -36l-836 2l2 -1h-63h-1h-167h-48z" />
    <glyph glyph-name="(j.liga" unicode="&#x28;j" horiz-adv-x="1243" 
d="M931 369l-866 -1l898 37v300h119v-271v-7v-45l38 -13h-190h1zM1033 295h75l-75 -21v-12v-7v0q-1 -61 -28.5 -115.5t-76.5 -92.5l-13 -10v1q-70 -49 -154 -49q-76 0 -141 40t-100 108l-7 12h142l2 -2q43 -39 100 -39h9q58 0 101 40t48 98v40l-850 36l850 -2h263z" />
    <glyph glyph-name="(z.liga" unicode="&#x28;z" horiz-adv-x="1373" 
d="M720 699h588v-118v-1l-189 -192l60 -20h-80h-167h-16l1 1l-852 -2l903 38l174 176h-422v118zM1008 276l-168 -169h421v-119h-588v119v0l2 2l177 179l-787 33l818 -1h1h258l-110 -19l-7 -7h47z" />
    <glyph glyph-name="g).liga" unicode="g&#x29;" horiz-adv-x="1297" 
d="M1232 322l-626 -22l-29 -5h78l-82 -23v-10q0 -113 -80 -193t-192.5 -80t-192.5 80t-80 193v58h261h-2h34h146zM305 106q48 0 87.5 28.5t54.5 74.5h-126v81l-137 -5l-38 -10v-19q0 -62 44 -106t105 -44h10zM76 369h-19l19 7v52q0 112 80 192t193 80q66 0 123.5 -29t96 -81
t48.5 -118l2 -9h-120l-1 6q-13 50 -53.5 81.5t-91.5 31.5h-9q-62 0 -105.5 -44t-43.5 -106v-28l1037 -36l-991 1h1h-47h-119z" />
    <glyph glyph-name="k).liga" unicode="k&#x29;" horiz-adv-x="1206" 
d="M1140 322l-870 -37l-24 -6l291 -291h-167l-208 208v-208h-118v332h330h-2zM92 369h-30l30 12v318h119v-208l208 208h167l-296 -296l850 -35l-824 1h-60h-164z" />
    <glyph glyph-name="l).liga" unicode="l&#x29;" horiz-adv-x="1156" 
d="M223 286l-40 -11v-168h312v-118h-312v-1h-118v332h261h-1l766 2zM113 369h-34l34 13v317h119v-296l859 -35l-823 1h1h-37h-119z" />
    <glyph glyph-name="(t.liga" unicode="&#x28;t" horiz-adv-x="1360" 
d="M756 699h539v-118h-210v-195l53 -18h-53h-118h-35l1 1l-868 -2l902 38v176h-211v118zM1180 320l-144 -25v-1h74l-74 -20v-285h-118v297l-853 35l853 -2v1h262z" />
    <glyph glyph-name="(x.liga" unicode="&#x28;x" horiz-adv-x="1483" 
d="M982 369l-917 -2l890 37l-248 296h155l200 -240l201 240h155l-263 -313l55 -18h-70h-155h-1h-2zM1178 304l-60 -17l251 -299h-154l-201 240l-201 -240h-155l250 298l-843 35l871 -2l1 1h-1h271l-96 -16h67z" />
    <glyph glyph-name="(y.liga" unicode="&#x28;y" horiz-adv-x="1403" 
d="M929 369l-864 -2l889 37l-4 8l-241 288h154l160 -192l161 192h154l-241 -288l-14 -27l51 -16h-51v-1h-119v1h-36h1zM1176 320l-142 -24v-2h72l-72 -19v-287h-118v298l-851 35l851 -2v1h260z" />
    <glyph glyph-name="t).liga" unicode="t&#x29;" horiz-adv-x="1263" 
d="M1198 321l-868 -36l-40 -11v-285h-118v331h261h-1zM220 381v200h-211v118h539v-118h-210v-178l860 -36l-807 2l1 -1h-54h-118h-34z" />
    <glyph glyph-name="x).liga" unicode="x&#x29;" horiz-adv-x="1419" 
d="M537 320l817 1l-897 -37l248 -296h-154l-201 240l-201 -240h-155l278 332h270h-5zM279 369l31 12l-268 319h155l201 -240l201 240h155l-250 -298l850 -35l-878 2h-156h-41z" />
    <glyph glyph-name="y).liga" unicode="y&#x29;" horiz-adv-x="1304" 
d="M1239 321l-878 -36l-36 -10v-287h-119v332h260h-2zM255 384l-15 28l-241 288h154l161 -192l160 192h155l-242 -288l-4 -9l856 -36l-815 2h1h-52v-1h-118v1h-36l36 13v2z" />
    <glyph glyph-name="z).liga" unicode="z&#x29;" horiz-adv-x="1347" 
d="M291 378l201 203h-423v118h589v-118h-1v-1l-177 -180l801 -33l-753 2v-1h-79h-168h1h-17zM384 284l-27 -8l-167 -169h420v-119h-588v119v0l3 2l208 211h258h-1l791 1z" />
    <glyph glyph-name=".notdef" horiz-adv-x="527" 
d="M50 700h427v-700h-427v700zM78 680l185 -309l186 309h-371zM251 350l-180 300v-601zM264 329l-185 -308h370zM276 350l181 -303v605z" />
    <glyph glyph-name=".null" horiz-adv-x="0" 
 />
    <glyph glyph-name="nonmarkingreturn" horiz-adv-x="333" 
 />
    <glyph glyph-name="controlLF" unicode="&#xa;" horiz-adv-x="0" 
 />
    <glyph glyph-name="controlCR" unicode="&#xd;" horiz-adv-x="0" 
 />
    <glyph glyph-name="space" unicode=" " horiz-adv-x="356" 
 />
    <glyph glyph-name="exclam" unicode="!" horiz-adv-x="241" 
d="M118.5 -8q-23.5 0 -40 16.5t-16.5 40t16.5 40t40 16.5t40 -16.5t16.5 -40t-16.5 -40t-40 -16.5zM180 133h-119v522h119v-522z" />
    <glyph glyph-name="numbersign" unicode="#" horiz-adv-x="809" 
d="M626 489h150l-18 -50l-17 -47h-142l-43 -154h151l-13 -35l-9 -25l-11 -30l-2 -7h-143l-39 -139h-103l39 139h-160l-39 -139h-103l39 139h-129v7l11 30l9 25l12 35h124l43 154h-132l17 47l18 50h124l44 157h103l-44 -157h160l44 157h103zM453 238l43 154h-160l-43 -154
h160z" />
    <glyph glyph-name="dollar" unicode="$" horiz-adv-x="623" 
d="M81 411l-5 12q-17 37 -17 77t16 77l5 11q6 12 14 23v1q7 10 16 19v1q9 9 18 17l1 1q9 8 20 15h1q11 7 22 12q12 6 24 9q25 8 52 9v90h100v-90q74 -5 126 -58.5t56 -127.5v-2v-3v-3v-8h-117v8h-1q0 15 -6 29t-16.5 24.5t-24.5 16.5t-30 6h-81q-32 0 -54.5 -22.5
t-22.5 -54.5t22.5 -54.5t54.5 -22.5h81q67 0 119 -41l52 -17h-32h-360h-47l35 13q-13 16 -21 33zM563 256q16 -37 16 -76.5t-16 -76.5l-5 -12q-26 -50 -74 -79q-11 -6 -19 -10q-3 -1 -6 -3q-12 -5 -22 -7q-20 -6 -41 -7v-91h-100v90q-53 2 -98 30.5t-69 76.5l-6 12h1
q-15 35 -16 72v8h117l1 -8q1 -27 19.5 -47.5t45.5 -24.5h105q28 4 46.5 26t18.5 50q0 32 -23 54.5t-55 22.5h-8l-80 1h-3h-3q-5 1 -8 1q-4 1 -10 1q-5 1 -8 2q-4 1 -9.5 2.5t-7.5 1.5q-3 1 -10 3q-6 3 -7 3q-3 1 -9 4l-120 24h38l-101 18h250l-1 -1h236l1 -1q21 -21 34 -47z
" />
    <glyph glyph-name="percent" unicode="%" horiz-adv-x="664" 
d="M626 154v-73q-2 -41 -31.5 -69t-70.5 -28t-70.5 28t-31.5 69v73q2 41 31.5 69.5t70.5 28.5t70.5 -28.5t31.5 -69.5zM546 86v64q0 9 -6.5 15.5t-15.5 6.5t-15.5 -6.5t-6.5 -15.5v-64q0 -9 6.5 -15.5t15.5 -6.5t15.5 6.5t6.5 15.5zM406 316h20l-176 -332h-134l158 297
l-47 13h53l1 1l-124 22h250zM241 524q-2 -41 -31.5 -69.5t-70.5 -28.5t-70.5 28.5t-31.5 69.5v73q2 41 31.5 69.5t70.5 28.5t70.5 -28.5t31.5 -69.5v-73zM117 529q0 -10 6.5 -16t15.5 -6t15.5 6t6.5 16v64q0 9 -6.5 15.5t-15.5 6.5t-15.5 -6.5t-6.5 -15.5v-64zM190 365
l67 25l161 305h134l-170 -321l28 -9h-32h-134h-54z" />
    <glyph glyph-name="ampersand" unicode="&#x26;" horiz-adv-x="659" 
d="M558 194q30 -49 46.5 -101t16.5 -93h-97q0 35 -19 82q-13 -26 -29 -46.5t-41 -40.5t-63 -30.5t-86 -10.5h-1h-2q-48 0 -87 10.5t-64 28t-39.5 33t-23.5 32.5q-25 44 -23 97t31 100q31 52 83 81q-29 35 -46 81.5t-17 92.5q-1 35 9.5 66t32.5 58t61 43.5t91 17.5
q121 1 171 -86q28 -49 24.5 -114.5t-38.5 -123.5q-12 -21 -28 -39q42 -23 79 -61q40 34 103 32l-3 -97q-28 1 -41 -12zM292 598q-99 -2 -99 -87q1 -52 30.5 -96.5t58.5 -45.5q11 0 21 -1q35 7 62 52q21 35 24.5 75t-11.5 66q-22 37 -82 37h-4zM435 166q6 14 8 20
q-62 74 -140 85q-7 -1 -15 0h-5q-34 0 -62.5 -13.5t-40.5 -26t-20 -26.5q-15 -25 -17 -51.5t10 -47.5q30 -55 131 -56h3q30 0 52.5 6.5t36 14.5t26 26t18 30.5t15.5 38.5z" />
    <glyph glyph-name="parenleft" unicode="(" horiz-adv-x="781" 
d="M975 283l-917 39l917 -2v-37zM58 368l917 38v-37z" />
    <glyph glyph-name="parenright" unicode=")" horiz-adv-x="768" 
d="M-208 283v37l917 2zM-208 406l917 -38l-917 1v37z" />
    <glyph glyph-name="asterisk" unicode="*" horiz-adv-x="398" 
d="M361 510v-53h-97l68 -69l-38 -38l-69 69v-98h-53v98l-69 -69l-38 38l69 69h-98v53h98l-69 69l38 39l69 -69v97h53v-97l69 69l38 -39l-68 -69h97z" />
    <glyph glyph-name="plus" unicode="+" horiz-adv-x="443" 
d="M270 364h138v-97h-138v-138h-97v138h-139v97h139v139h97v-139z" />
    <glyph glyph-name="comma" unicode="," horiz-adv-x="148" 
d="M72 93q21 0 37 -14.5t16 -40.5q0 -35 -16.5 -69t-31.5 -42q-3 -2 -7 -2q-3 0 -5 2q-6 3 -5 11q1 21 -2.5 34.5t-7 18.5t-10.5 12q-16 18 -16.5 38.5t14.5 36.5q15 15 34 15z" />
    <glyph glyph-name="hyphen" unicode="-" horiz-adv-x="347" 
d="M323 274h-299v97h299v-97z" />
    <glyph glyph-name="period" unicode="." horiz-adv-x="141" 
d="M70.5 -5q-20.5 0 -34.5 14t-14 34t14 34.5t34.5 14.5t34.5 -14.5t14 -34.5t-14 -34t-34.5 -14z" />
    <glyph glyph-name="slash" unicode="/" horiz-adv-x="423" 
d="M274 657h127l-253 -662h-127z" />
    <glyph glyph-name="zero" unicode="0" horiz-adv-x="641" 
d="M594 315v-103v-9v-1v-2v-3q-1 -10 -1 -14q-5 -52 -33 -96.5t-73 -71.5q-48 -29 -104 -31h-31q-58 2 -106.5 32t-76.5 79.5t-28 107.5v9v63l-63 18h60l-130 22h250h-1h6v-22v-1v-92q1 -39 29 -66.5t68 -28.5h15q40 1 68.5 29.5t28.5 68.5v9h1v62l-65 19h60l-130 22h249h7z
M41 363l52 20v85v8v11v5v2.5t1 2.5q4 52 32.5 96.5t73.5 71.5q47 29 104 31h30q84 -4 144.5 -62.5t66.5 -141.5v-12v-2v-2v-8v-95l30 -10h-205l54 21v84v8q0 41 -28.5 69.5t-68.5 29.5h-15q-26 -1 -48.5 -13.5t-35.5 -35t-14 -48.5v-104l31 -11h-204z" />
    <glyph glyph-name="one" unicode="1" horiz-adv-x="343" 
d="M122 377v108h-66v118h7q25 6 41 25.5t18 45.5v21h119v-324l18 -6h-18h-119h-32zM289 316v-331h-118v287l-67 19h67v2l-137 23h255z" />
    <glyph glyph-name="two" unicode="2" horiz-adv-x="584" 
d="M164 477v-8h-121v8q0 89 61.5 152.5t149.5 66.5v1h31q56 -3 104 -31q30 -18 52.5 -44t36.5 -58t17 -67v-1.5v-2.5v-5q1 -10 1 -11v-8h-1v-15h1v-8q0 -10 -1 -20l-2 -14v0q-3 -18 -10 -39l29 -10h-236l74 28q24 27 24 54v33q0 40 -28.5 68.5t-68.5 28.5h-15
q-41 0 -69.5 -28.5t-28.5 -69.5zM210 114v-9h328v-121h-328h-121v0v121v86h1l-1 2l217 88l-30 8h48q1 1 7 4l-125 22h160h162q-19 -47 -56 -80l-16 -14q-9 -6 -19 -12q-10 -7 -18 -10l-20 -9h-1z" />
    <glyph glyph-name="three" unicode="3" horiz-adv-x="609" 
d="M161 483l-10 -1h-111v8q0 83 59 143t143 62h8h57h2q57 0 106 -29q42 -25 68 -66.5t31 -90.5q1 -9 1 -19t-1 -19q-5 -54 -37 -98l28 -10h-253l46 18v28h9q33 0 56 21q28 25 28 63q0 33 -23 57t-56 26h-74q-33 -2 -56 -26t-23 -57zM562 207q1 -9 1 -18.5t-1 -19.5
q-4 -48 -30.5 -89.5t-68.5 -66.5q-48 -29 -105 -29h-3h-57h-8q-83 1 -142.5 61t-59.5 143v8h122l-2 -9q0 -22 10 -41t28 -30.5t40 -12.5h74q34 1 57 25t23 58q0 37 -28 62q-6 5 -12.5 9t-13.5 7t-14.5 4.5t-15.5 1.5h-8l-1 6l-46 13h29l-147 26h164h172q38 -47 43 -108z" />
    <glyph glyph-name="four" unicode="4" horiz-adv-x="664" 
d="M532 259h101v-118h-101v-157h-119v157h-285v114l-1 1l1 1v2h1l8 11l-70 19h78l-148 26h173h147l-41 -56h137v22l-69 19h67l-88 15h111h98v-56zM303 363h-236l76 29l221 301l1 -1v3h118v-323l26 -9h-184l40 15v116l-89 -121z" />
    <glyph glyph-name="five" unicode="5" horiz-adv-x="597" 
d="M287 381h-237v72v169v73h434v-121h-313v-72h98q16 2 32 0q52 -4 96 -30q10 -6 18 -12l3 -3q42 -32 66 -83l31 -11h-237l36 14q-13 4 -27 4zM552 235v-8v-15v-8v-11v-6h-1v-1.5v-2.5q-5 -52 -33 -96.5t-73 -71.5q-23 -14 -49.5 -22t-54.5 -9h-30q-58 3 -106.5 32.5t-77 79
t-28.5 108.5v8h122v-8q0 -41 28.5 -69.5t68.5 -29.5h15q40 1 68.5 29t29.5 68v34q0 18 -7 35l-67 18h57l-2 4l-125 22h103h147q12 -30 14 -60q1 -10 1 -20z" />
    <glyph glyph-name="six" unicode="6" horiz-adv-x="633" 
d="M574 315q15 -39 15 -81v-30v-11v-6q-1 0 -1 -1.5v-2.5q-4 -52 -32.5 -96.5t-73.5 -71.5q-48 -29 -104 -31h-30q-84 3 -144.5 62t-66.5 142h-1v15v18v56l-56 16h56l-126 22h250h-1h42q-43 -29 -43 -81v-8v-14v-8q0 -41 28.5 -69.5t68.5 -29.5h15q16 0 31 5t26.5 14t21 21
t14.5 27t5 30v35q-1 19 -9 37l-68 19h57v0l-127 22h250h-1h4zM88 363h-45l45 17v95q0 10 1 20q4 41 22 78l7 12v0q10 18 23 33l2 2q23 26 52 44q45 26 97 30q8 1 16 1h5v1h8q15 0 30 -2q33 -4 64 -18.5t55.5 -38t41.5 -52.5l7 -12h-215q-39 -2 -66 -28.5t-28 -65.5
q42 21 89 23h31q63 -3 114.5 -38.5t77.5 -91.5l25 -9h-210l24 9q-19 9 -39 9h-15q-18 0 -36 -8l29 -10h-212z" />
    <glyph glyph-name="seven" unicode="7" horiz-adv-x="524" 
d="M25 695h459v-121h-1l-5 -11l-80 -181l58 -19h-258l75 28l80 183h-328v121zM415 315h23l-147 -331h-129l130 293l-56 16h60l-130 22h249z" />
    <glyph glyph-name="eight" unicode="8" horiz-adv-x="642" 
d="M596 207q1 -9 1 -19q0 -9 -1 -19q-5 -48 -31 -89.5t-68 -66.5q-49 -29 -106 -29h-1h-1h-58h-2h-5h-1q-53 1 -99 29q-42 25 -68.5 66.5t-30.5 90.5q-1 9 -1 18q0 10 1 19q4 39 21 74l-48 13h56v1l-126 22h250l-1 -1h277l-1 -1q37 -48 43 -108zM397 103q13 1 24.5 5.5
t21 12.5t16.5 18t10.5 22t3.5 25q0 37 -27 62q-6 5 -13 9q-6 4 -14 7q-6 3 -14 4q-8 2 -15 2h-58q-33 0 -57 -22q-28 -25 -28 -62q0 -33 23 -57.5t56 -25.5h71zM119 365h-58l46 17q-26 41 -30 89q-1 9 -1 19t1 19q4 49 30 90.5t69 66.5q45 27 100 29h2.5h2.5h2h57h3
q57 0 105 -29q28 -17 49.5 -41t34 -54t15.5 -62q1 -9 1 -19t-1 -19q-4 -50 -33 -93l41 -13h-50h-124h-41h-221zM279 576q-34 -2 -57 -26t-23 -57q0 -38 28 -63q24 -21 56 -21h57q33 0 57 21q28 25 28 63q0 33 -23 57t-56 26h-67z" />
    <glyph glyph-name="nine" unicode="9" horiz-adv-x="622" 
d="M568 315h7v-110q0 -10 -1 -20q-4 -41 -23 -78h1l-7 -12q-5 -9 -11 -17l-12 -16l-3 -2q-23 -26 -52 -44q-45 -27 -97 -30q-8 -1 -15 -1h-6v-1h-8q-15 0 -29 2q-51 7 -93.5 35.5t-68.5 73.5l-6 12h214q39 2 66 28.5t29 65.5q-42 -21 -90 -23h-30q-52 2 -96.5 26.5
t-74.5 66.5l-79 22h60l-130 22h250h-1h26q24 -16 52 -16h15q15 0 29 5l-65 11h250h-1zM266 363h-220l38 15q-11 33 -11 68v8h1v14h-1v8q0 1 1 11v5v2v3q5 52 33 96.5t73 71.5q48 29 104 31h31q84 -4 144 -62.5t66 -141.5h1v-15v-1v-8v-9v-86l30 -10h-221l44 17q25 28 25 66
v8h1v5v9v8q0 41 -28.5 69.5t-69.5 29.5h-14q-41 -1 -69.5 -29t-28.5 -68v-35q1 -38 27 -65z" />
    <glyph glyph-name="colon" unicode=":" horiz-adv-x="161" 
d="M80.5 -5q-20.5 0 -34.5 14t-14 34t14 34.5t34.5 14.5t34.5 -14.5t14 -34.5t-14 -34t-34.5 -14zM80.5 279q-20.5 0 -34.5 14t-14 34t14 34.5t34.5 14.5t34.5 -14.5t14 -34.5t-14 -34t-34.5 -14z" />
    <glyph glyph-name="semicolon" unicode=";" horiz-adv-x="166" 
d="M83 279q-20 0 -34 14t-14 34t14 34.5t34 14.5t34 -14.5t14 -34.5t-14 -34t-34 -14zM81 95q22 0 37.5 -14.5t15.5 -40.5q0 -35 -16.5 -69t-31.5 -42q-3 -2 -7 -2q-3 0 -5 2q-6 3 -5 11q1 21 -2.5 34.5t-7 18.5t-10.5 12q-16 18 -16.5 38.5t14.5 36.5q15 15 34 15z" />
    <glyph glyph-name="equal" unicode="=" horiz-adv-x="400" 
d="M365 400h-331v97h331v-97zM365 209h-331v97h331v-97z" />
    <glyph glyph-name="question" unicode="?" horiz-adv-x="453" 
d="M415 466q0 -31 -10 -61l-3 -8q-3 -8 -7 -16q-18 -36 -50 -63q-11 -8 -21 -14q-7 -5 -15 -9q-4 -1 -9 -4q-34 -19 -37 -58v-100h-119v102q2 27 10 53l3 8q19 50 62 83q14 11 30 19q3 1 5 2v3h6q36 21 36 63q0 30 -21 51t-51 21t-51 -21t-21 -51v-8h-119v8q0 79 56 134.5
t135 55.5t135 -55.5t56 -134.5zM201.5 -8q-23.5 0 -40 16.5t-16.5 40t16.5 40t40 16.5t40 -16.5t16.5 -40t-16.5 -40t-40 -16.5z" />
    <glyph glyph-name="at" unicode="@" horiz-adv-x="736" 
d="M417 695q122 0 195.5 -82t75.5 -219q1 -67 -16.5 -127.5t-54 -101t-83.5 -41.5t-80 33q-16 17 -27 44q-28 -23 -61 -30q-42 -10 -78.5 9.5t-56.5 62.5q-39 79 8 157q31 50 90 81.5t127 32.5l2 -97q-42 -1 -80.5 -20t-55.5 -48q-20 -32 -4 -64q11 -23 28 -20q19 4 38 28.5
t24 59.5q0 9 1 18q2 19 17 31.5t34 12.5q20 -2 33 -16t13 -34q-1 -10 -2 -19q-1 -24 1 -47.5t7 -45t13 -30.5q3 -2 6 -2q8 0 18 12.5t20 34t16.5 55t5.5 69.5q0 23 -3 45.5t-14 53t-29 53t-51 38.5t-77 16q-118 0 -195 -76.5t-77 -193.5q0 -132 74 -204q78 -77 226 -73
l3 -97h-15q-179 0 -282 101q-103 100 -103 273q0 160 104.5 263.5t264.5 103.5z" />
    <glyph glyph-name="A" unicode="A" horiz-adv-x="696" 
d="M568 320l124 -332h-130l-98 260h-197l-98 -260h-130l107 288l-68 19h76l-146 25h560zM115 369h-51l59 22l116 309h156l120 -321l30 -10h-26h-404zM317 561l-55 -146h109z" />
    <glyph glyph-name="B" unicode="B" horiz-adv-x="657" 
d="M605 320q30 -51 30 -110q0 -89 -62.5 -153t-151.5 -67v-1h-274v286l-71 20h71v1l-141 24h599zM421 107q40 3 67.5 32.5t27.5 69.5q0 33 -19 60t-51 37q-14 5 -31 5h-150v-203h156v-1zM98 369h-52l52 20v311h203v-1q76 -4 128.5 -59t52.5 -131q0 -30 -9 -59q44 -24 73 -66
l45 -15h-35h-458zM217 582v-145h77q40 1 60 37q10 17 10 35q0 30 -21 51t-50 22h-76z" />
    <glyph glyph-name="C" unicode="C" horiz-adv-x="608" 
d="M472 108h117v-118h-108h-8h-1.5h-1.5h-5q-122 3 -212 84t-107 200l-75 21h72v1l-142 24h259q0 -88 62 -150t150 -62zM78 369h-37l53 20q8 128 101 218t221 93h6h1h1h8h108v-118h-116q-88 0 -150 -62q-58 -58 -62 -140l35 -11h-35h-119h-15z" />
    <glyph glyph-name="D" unicode="D" horiz-adv-x="646" 
d="M616 320h9q0 -134 -94.5 -230.5t-228.5 -99.5h-6h-1h-1h-8h-24v-1h-119v287l-67 19h67v2l-137 23h256v-212h33q87 0 149 62q45 45 58 107l-65 18h68v1l-138 24h249zM83 369h-37l49 18v314h118v-1h24h8h2h1h5q131 -3 224.5 -95.5t98.5 -223.5l37 -12h-37h-118h-51l50 19
q-6 77 -61 132q-62 62 -150 62h-33v-200l39 -13h-39h-118h-12z" />
    <glyph glyph-name="E" unicode="E" horiz-adv-x="616" 
d="M579 261h-312v-154h312v-118h-324h-106v285l-74 21h74l-144 25h574v-59zM101 369h-56l56 21v310h430v-118h-312v-155h312v-49l27 -9h-27h-430z" />
    <glyph glyph-name="F" unicode="F" horiz-adv-x="594" 
d="M6 320h567v-59h-311v-272h-119v287l-67 19h67v2zM95 369h-49l49 18v313h430v-118h-312v-155h312v-47l34 -11h-34h-430z" />
    <glyph glyph-name="G" unicode="G" 
d="M575 320h112v-58q0 -113 -80 -193t-192.5 -80t-192.5 80t-80 193v13l-70 20h70v1l-140 24h258v-64q0 -62 44 -106t105 -44h10q48 0 87 28.5t54 74.5h-125v75l-40 11h40v6l-110 19h250zM79 369h-37l51 19v40q0 112 80 192t193 80q100 0 176 -64.5t92 -163.5l2 -9h-120
l-1 6q-13 50 -53.5 81.5t-91.5 31.5h-9q-62 0 -106 -44t-44 -106v-51l37 -12h-37h-118h-14z" />
    <glyph glyph-name="H" unicode="H" horiz-adv-x="717" 
d="M7 320h665v-331h-118v272h-295v-272h-118v288l-64 18h64v2zM92 369h-45l45 17v314h119v-273h294v273h119v-320l33 -11h-33h-532z" />
    <glyph glyph-name="I" unicode="I" horiz-adv-x="309" 
d="M7 320h257v-331h-118v287l-69 19h69v1zM97 369h-50l50 19v312h119v-319l37 -12h-37h-119z" />
    <glyph glyph-name="J" unicode="J" horiz-adv-x="561" 
d="M271 320h256v-58v-7v0q-2 -61 -29.5 -115.5t-76.5 -92.5l-13 -10v1q-69 -49 -153 -49q-77 0 -141.5 40t-100.5 108l-6 12h141l2 -2q43 -39 100 -39h10q58 0 101 40t47 98v30l-67 19h67v1zM517 369h-206l49 19v317h118v-271q1 -2 1 -7v-45z" />
    <glyph glyph-name="K" unicode="K" horiz-adv-x="629" 
d="M302 320l334 -332h-168l-207 208v-208h-119v289l-65 18h65v2l-135 23h295zM94 369h-47l47 18v312h118v-208l208 208h167l-318 -319l33 -11h-44h-1h-163z" />
    <glyph glyph-name="L" unicode="L" horiz-adv-x="585" 
d="M264 107h311v-118h-311v-1h-119v287l-69 20h69v1l-139 24h258v-213zM97 369h-51l51 19v311h118v-318l37 -12h-37h-118z" />
    <glyph glyph-name="M" unicode="M" horiz-adv-x="925" 
d="M795 369h-116h-22l21 8l-20 110l-39 -118h-125h-67l76 28l101 302h125l64 -319l33 -11h-31zM102 369h-58l63 24l62 306h125l107 -321l3 -9v0h-124h-20l17 7l-37 112l-21 -116v-3h-1h-116zM850 291l60 -302h-122l-57 313l-34 10h32l-47 8h162l1 -8l3 -13zM4 320h263
l-60 -331h-122l57 287l-68 19h72v1zM486 320h181l-10 -29l-100 -302h-119l-2 8l-1 2l-98 296l-52 14h47v1l-10 1l-51 9h181l4 -11l2 -5l3 -9l36 -109l39 117l-30 9h28z" />
    <glyph glyph-name="N" unicode="N" horiz-adv-x="727" 
d="M262 295v0v-306h-119v287l-66 19h66v2l-136 23h255v-25zM497 320h186v-331h-148l-2 4l-170 294l-66 19h56l-1 2l-73 12h202l9 -14l75 -130v116l-50 14h50v3zM516 369h-15l15 6v325h119v-319l35 -12h-35h-119zM95 369h-48l48 18v313h146l3 -4l189 -327h-137h-34l28 10
l-77 133v-138l19 -5h-19h-118z" />
    <glyph glyph-name="O" unicode="O" horiz-adv-x="707" 
d="M84 367h-48l48 18v42q0 112 80 192t193 80t193 -80t80 -192v-47l40 -13h-41h-119h-47l47 18v46q0 62 -43.5 106t-105.5 44h-9q-62 0 -106 -44t-44 -106v-51l40 -13h-40h-118zM678 293v-1v-31q0 -113 -80 -192.5t-192.5 -79.5t-192.5 79.5t-80 192.5v13l-67 19h67v1
l-137 24h255v-25v-1v-37q0 -62 43.5 -105.5t105.5 -43.5h9q62 0 106 43.5t44 105.5v19l-66 19h66v2l-136 23h255v-25z" />
    <glyph glyph-name="P" unicode="P" horiz-adv-x="573" 
d="M142 319h408q-29 -49 -79 -78.5t-110 -29.5q-8 0 -18 1h-83v-223h-118v285l-69 19h69v2l-139 24h139zM228 367h-185l50 19v313h226q89 -3 151.5 -67t62.5 -153q0 -50 -23 -96l46 -16h-169l1 1h-161zM212 580v-201h100q42 0 71.5 29.5t29.5 71t-29.5 71t-71.5 29.5h-100z
" />
    <glyph glyph-name="Q" unicode="Q" horiz-adv-x="739" 
d="M649 138l72 -65l-81 -88l-68 63q-73 -56 -165 -56q-112 0 -192 80t-80 192v13l-69 19h69v1l-139 24h257v-63q0 -62 44 -105.5t105 -43.5h10q39 0 73 19l-65 60l80 87l57 -52q4 18 4 35v19l-68 19h68v1l-138 24h257v-57q0 -66 -31 -126zM86 370h-50l50 19v41
q0 113 80 192.5t193 79.5t193 -79.5t80 -192.5v-48l38 -12h-38h-120h-49l49 18v46q0 62 -43.5 106t-105.5 44h-9q-62 0 -106 -44t-44 -106v-52l38 -12h-38h-118z" />
    <glyph glyph-name="R" unicode="R" horiz-adv-x="613" 
d="M429 220l174 -231h-148l-168 223h-22v-223h-118v283l-83 23h78l-148 26h250l-1 -1h313q-44 -75 -127 -100zM98 369h-64l64 24v306h226q89 -2 151.5 -66t62.5 -153q0 -53 -24 -100l33 -11h-39h-410zM217 581v-202h99q43 0 72.5 29.5t29.5 71.5t-29.5 71.5t-71.5 29.5h-100
z" />
    <glyph glyph-name="S" unicode="S" horiz-adv-x="584" 
d="M51 427q-17 37 -17 77t16 77h-1l6 12q16 30 41 54q19 18 43 30q11 7 24 11q32 12 66 12h81q53 0 98 -26.5t71 -71t26 -97.5v-8h-118v8q0 21 -10.5 38.5t-28 27.5t-38.5 10h-81q-32 0 -54.5 -22.5t-22.5 -54.5t22.5 -54.5t54.5 -22.5h81q73 0 128 -49l33 -10h-432l39 14
q-13 16 -22 33zM554 183.5q0 -39.5 -16 -76.5l-6 -12q-25 -50 -73 -79q-11 -6 -19 -10q-3 -1 -6 -3q-12 -4 -22 -7q-26 -8 -54 -8h-80q-56 0 -102.5 29t-71.5 78l-6 12h1q-16 35 -16 72v8h117l1 -7q1 -28 19 -48.5t46 -24.5h105q28 4 46.5 26t18.5 50q0 32 -23 54.5
t-55 22.5h-8l-80 1q-1 0 -3 0.5t-3 0.5h-8q-4 1 -10 2q-5 1 -8 1q-4 1 -9.5 2.5t-7.5 1.5q-3 1 -10 4q-6 2 -7 2q-2 1 -7 3l-63 18h30l-133 23h108h359q21 -21 34 -47l6 -12q16 -37 16 -76.5z" />
    <glyph glyph-name="T" unicode="T" horiz-adv-x="559" 
d="M10 699h539v-118h-210v-200l38 -13h-38h-118h-50l50 19v194h-211v118zM131 320h257v-331h-119v286l-68 19h68v2z" />
    <glyph glyph-name="U" unicode="U" horiz-adv-x="718" 
d="M426 319h257v-57q0 -113 -80 -193t-192.5 -80t-192.5 80t-80 193v12l-71 20h71v1l-141 24h259v-64q0 -61 44 -105t105 -44h10q61 0 105 44t44 105v20l-68 19h68v1zM89 368h-52l52 20v311h119v-319l35 -12h-35h-119zM516 368h-50l50 18v313h119v-319l38 -12h-38h-119z" />
    <glyph glyph-name="V" unicode="V" horiz-adv-x="651" 
d="M101 369l33 12l-123 319h127l121 -315l49 -16h-43h-127h-37zM327 320h234l-2 -6l-4 -11l-3 -8l-117 -307h-121l-3 8l-107 278l-73 21h66l-1 2l-135 23h126h126l60 -156l50 129l-35 10h36zM385 369h-39l45 17l121 314h127l-122 -320l34 -11h-38h-128z" />
    <glyph glyph-name="W" unicode="W" horiz-adv-x="894" 
d="M678 318h165l-66 -329h-126l-102 306l-40 11h37l-1 1l-61 11h182l39 -118l19 101l-20 5h21v2zM283 318h185l-19 -8l-106 -316l-6 2l2 -7h-122l3 7l-5 -1l-55 273l-86 24h78l-148 26h262l22 -118l35 107zM678 366h-16l18 7l59 326h122l-64 -321l34 -12h-37h-116zM278 366
h-20l23 9l107 324h119l3 -8v-2v0l106 -319l15 -4h-13h-125h-47l42 16l-40 120l-43 -129l21 -7h-23h-125zM44 366l54 21l-63 312h122l59 -321l34 -12h-32h-116h-58z" />
    <glyph glyph-name="X" unicode="X" horiz-adv-x="757" 
d="M484 320l279 -332h-155l-201 240l-201 -240h-155l244 291l-58 16h72l1 1l-143 24h318h-1zM207 369l56 21l-260 310h155l201 -240l201 240h154l-269 -321l29 -10h-37h-1h-155h-74z" />
    <glyph glyph-name="Y" unicode="Y" horiz-adv-x="628" 
d="M253 388l-13 24l-241 288h154l161 -192l160 192h155l-242 -288l-14 -28v-4l36 -11h-36v-1h-118v1h-53zM163 320h259v-332h-119v287l-70 19h70v2z" />
    <glyph glyph-name="Z" unicode="Z" horiz-adv-x="677" 
d="M260 398l182 183h-423v118h588v-118v-1l-193 -196l48 -16h-63h-1h-167h-48zM236 107h421v-119h-588v119v0l2 2l175 176l-33 9h41l6 6l-117 20h304z" />
    <glyph glyph-name="bracketleft" unicode="[" horiz-adv-x="1201" 
d="M65 322h1100q1 -15 -51 -37q-38 -16 -97 -102q-53 -75 -71 -90q-30 -25 -49 9q-20 37 -136 74.5t-238 61.5t-272.5 50t-185.5 34zM933 390q28 -12 27 -20h-599q6 2 136.5 24.5t216.5 46t101 49.5q13 25 42 -12q6 -8 17 -25q38 -54 59 -63z" />
    <glyph glyph-name="backslash" unicode="\" horiz-adv-x="423" 
d="M149 657l253 -662h-127l-2 5l-251 657h127z" />
    <glyph glyph-name="bracketright" unicode="]" horiz-adv-x="1201" 
d="M36 322h1100q-35 -8 -185.5 -34t-272.5 -50t-238 -61.5t-136 -74.5q-24 -42 -67 8q-5 7 -63 88q-52 72 -87 87q-52 22 -51 37zM386 490q14 -26 100 -49.5t216.5 -46t137.5 -24.5h-600q0 8 28 20q21 9 59 64q31 45 44 47q9 1 15 -11z" />
    <glyph glyph-name="underscore" unicode="_" horiz-adv-x="502" 
d="M478 24h-454v96h454v-96z" />
    <glyph glyph-name="a" unicode="a" horiz-adv-x="690" 
d="M611 295l-62 -17l108 -290h-130l-98 260h-197l-98 -260h-130l124 332h553l-139 -24v-1h69zM177 369h-35l41 15l118 316h156l118 -315l48 -16h-42h-404zM379 561l-54 -146h109z" />
    <glyph glyph-name="b" unicode="b" horiz-adv-x="630" 
d="M515 295h42l-38 -11q13 -36 13 -74q0 -89 -62.5 -153t-150.5 -67v-1h-275v331h583l-115 -19q0 -1 1 -3t2 -3zM319 107q26 2 47.5 16t34.5 36.5t13 49.5q0 33 -19.5 60t-51.5 37q-14 5 -31 5h-150v-203h157v-1zM92 369h-36l36 14v317h204v-1q75 -4 127.5 -59t52.5 -131
q0 -30 -9 -59q40 -22 69 -59l66 -22h-52h-458zM211 582v-145h77q40 1 60 37q10 17 10 35q0 30 -21 51t-50 22h-76z" />
    <glyph glyph-name="c" unicode="c" horiz-adv-x="537" 
d="M202 170q62 -62 150 -62h117v-118h-108h-8h-1.5h-1.5h-5q-134 3 -228.5 99.5t-94.5 230.5h260l-140 -24v-1h70l-67 -19q13 -62 57 -106zM409 700h108v-118h-116q-88 0 -150 -62q-58 -58 -62 -140l35 -11h-35h-119h-36l37 14q6 130 99 222t223 95h6h1h1h8z" />
    <glyph glyph-name="d" unicode="d" horiz-adv-x="668" 
d="M81 369h-21l33 12v320h118v-1h24h8h1h2h5q131 -3 224.5 -95.5t97.5 -223.5l38 -12h-37h-118h-36l35 13q-5 81 -62 138q-62 62 -149 62h-33v-200l39 -13h-39h-119h-11zM524 295h74l-76 -21q-17 -119 -107.5 -200t-211.5 -84h-6h-1h-1h-9h-24v-1h-118v331h263l-145 -25h75
l-75 -21v-166h33q88 0 150 62t62 150h261l-144 -25v0z" />
    <glyph glyph-name="e" unicode="e" horiz-adv-x="628" 
d="M477 295h77l-79 -22v-12h-312v-154h312v-118h-324h-106v331h579zM93 369h-39l39 15v316h431v-118h-312v-155h312v-44l43 -14h-43h-431z" />
    <glyph glyph-name="f" unicode="f" horiz-adv-x="633" 
d="M483 295h77l-86 -24v-10h-312v-272h-118v331h586zM92 369h-32l32 12v319h431v-118h-312v-155h312v-42l50 -16h-50h-431z" />
    <glyph glyph-name="g" unicode="g" horiz-adv-x="725" 
d="M577 295h78l-82 -23v-10q0 -113 -80 -193t-192.5 -80t-192.5 80t-80 193v58h261l-143 -24v-1h73l-73 -20v-19q0 -62 44 -106t105 -44h10q32 0 61 13t50 36.5t31 53.5h-126v111h404zM76 369h-19l19 7v52q0 112 80 192t193 80q66 0 123.5 -29t96 -81t48.5 -118l2 -9h-120
l-1 6q-13 50 -53.5 81.5t-91.5 31.5h-9q-62 0 -105.5 -44t-43.5 -106v-50l47 -13h-47h-119z" />
    <glyph glyph-name="h" unicode="h" horiz-adv-x="721" 
d="M576 295h69l-69 -19v-287h-119v272h-295v-272h-118v331h671l-139 -24v-1zM92 369h-29l29 11v320h119v-273h295v273h118v-315l49 -16h-49h-532z" />
    <glyph glyph-name="i" unicode="i" horiz-adv-x="324" 
d="M174 295h78l-90 -25v-281h-118v331h278zM92 369h-18l18 7v324h119v-317l49 -14h-49h-119z" />
    <glyph glyph-name="j" unicode="j" horiz-adv-x="676" 
d="M527 295h74l-74 -21v-12v-7v0q-2 -61 -29.5 -115.5t-76.5 -92.5l-13 -10v1q-69 -49 -153 -49q-77 0 -141.5 40t-100.5 108l-6 12h141l2 -2q43 -39 100 -39h10q58 0 101 40t47 98v74h263zM614 369h-190l33 13v323h118v-271v-7v-45z" />
    <glyph glyph-name="k" unicode="k" horiz-adv-x="587" 
d="M304 295l-58 -16l291 -291h-167l-208 208v-208h-118v332h330l-145 -25h1h74zM92 369h-30l30 12v318h119v-208l208 208h167l-315 -315l45 -15h-60h-164z" />
    <glyph glyph-name="l" unicode="l" horiz-adv-x="484" 
d="M162 107h312v-118h-312v-1h-118v332h261l-143 -24v-1h73l-73 -20v-168zM92 369h-34l34 13v317h119v-318l37 -12h-37h-119z" />
    <glyph glyph-name="m" unicode="m" horiz-adv-x="894" 
d="M777 299l2 -8l60 -302h-122l-57 313l-2 10l-1 8l-48 -8h29l-34 -10l-15 -4l-2 -7l-100 -302h-119l-3 8l-1 2l-104 312l-2 7l-65 -18l-1 -5h52l-56 -19l-52 -287h-122l66 331h372l-52 -9l-14 -2h51l-47 -13v-1l37 -109l41 125l3 9h360l-47 -8h-1h34l-34 -10l-6 -1v-2z
M129 369h-27l29 11l3 13l61 306h125l106 -316l19 -7l18 -7h-33h-124l-40 119l-19 -108l30 -8v-3h-32h-116zM520 369h-34l39 15l105 315h125l62 -308l67 -22h-63h-115l-22 118l-37 -111l24 -7h-26h-125z" />
    <glyph glyph-name="n" unicode="n" horiz-adv-x="713" 
d="M632 369h-118v331h118v-309l68 -22h-68zM629 309l-5 -1l-11 -2h65l-49 -14l-45 -13v-290h-148l-2 4l-182 315l-2 4l-88 -16v-1h68l-68 -19v-287h-118v331h653zM399 291l66 -115v143l-67 -11l-8 -2h63zM92 369h-15l15 6v325h147l2 -4l182 -315l38 -12h-31h-136h-1h-1h1
l-82 143v-129l51 -14h-51h-119z" />
    <glyph glyph-name="o" unicode="o" horiz-adv-x="700" 
d="M65 369h-21l32 10v50q0 112 80 192t193 80t193 -80t80 -192v-46l51 -14h-51h-119h-31l31 9v55q0 62 -44 106t-106 44h-9q-62 0 -105.5 -44t-43.5 -106v-50l50 -14h-50h-119h-11zM573 298v-3h60l-60 -17v-15q0 -113 -80 -192.5t-192.5 -79.5t-192.5 79.5t-80 192.5v57h264
l-146 -25h76l-76 -21v-17q0 -62 44 -105.5t105 -43.5h10q61 0 105 43.5t44 105.5v63h249z" />
    <glyph glyph-name="p" unicode="p" horiz-adv-x="585" 
d="M435 295h73l-99 -28q-62 -55 -145 -55q-8 0 -18 1h-83v-223h-119v330h534l-142 -24zM243 368h-185l34 13v319h227q88 -3 150.5 -67t62.5 -153q0 -48 -21 -92l61 -20h-169l1 1h-162zM211 581v-201h100q42 0 71.5 29.5t29.5 71t-29.5 71t-71.5 29.5h-100z" />
    <glyph glyph-name="q" unicode="q" horiz-adv-x="716" 
d="M573 275v-11q0 -66 -31 -126l72 -65l-80 -88l-68 63q-74 -56 -166 -56q-112 0 -192 80t-80 192v57h262l-144 -25h74l-74 -21v-17q0 -62 44 -105.5t105 -43.5h10q39 0 73 19l-64 60l80 87l56 -52q4 18 4 35v63h263l-144 -25h74zM63 370h-5l18 7v53q0 113 80 192.5
t193 79.5t193 -79.5t80 -192.5v-46l49 -14h-49h-119h-17l17 6v58q0 62 -44 106t-106 44h-9q-62 0 -105.5 -44t-43.5 -106v-50l48 -14h-48h-119h-13z" />
    <glyph glyph-name="r" unicode="r" horiz-adv-x="589" 
d="M511 294l-103 -28q-37 -32 -81 -46l173 -231h-148l-167 223h-22v-223h-119v331h409h128l-145 -25l-1 -1h76zM92 369h-32l32 12v318h227q88 -2 150.5 -66t62.5 -153q0 -47 -20 -91l62 -20h-72h-410zM211 581v-202h99q43 0 72.5 29.5t29.5 71.5t-29.5 71.5t-71.5 29.5h-100
z" />
    <glyph glyph-name="s" unicode="s" horiz-adv-x="620" 
d="M92 427q-17 37 -17 77t16 77l6 12q15 30 40 54q19 18 43 30q12 7 24 11q32 12 66 12h81q81 0 138 -57.5t57 -137.5v-8h-118v8q0 21 -10.5 38.5t-28 27.5t-38.5 10h-81q-31 0 -54 -22.5t-23 -54.5t23 -54.5t54 -22.5h81q66 0 118 -40l59 -19h-432l27 10q-16 17 -26 37z
M486 296h30l-46 -13q4 -6 7 -11l6 -12h-1q16 -37 16 -76.5t-16 -76.5h1l-6 -12q-26 -50 -74 -79q-10 -6 -19 -10q-3 -1 -6 -3q-12 -4 -22 -7q-26 -8 -53 -8h-81q-55 0 -102 29t-72 78l-6 12h1q-15 35 -16 72v8h118v-7q1 -28 19.5 -48.5t45.5 -24.5h105q28 4 46.5 26t18.5 50
q0 32 -22.5 54.5t-54.5 22.5h-8l-81 1h-3l-3 1h-8q-4 1 -10 2q-5 1 -8 1q-4 1 -9.5 2.5t-7.5 1.5q-3 1 -9 4q-7 2 -8 2q-3 2 -9 5l-2.5 1t-4.5 2t-9 5q-1 0 -3 1.5t-3 2.5q-3 2 -10 7q-1 0 -2 1q-2 1 -3 2q-7 6 -13 12l-6 5h359h1h176z" />
    <glyph glyph-name="t" unicode="t" horiz-adv-x="559" 
d="M9 699h539v-118h-210v-195l54 -18h-54h-118h-34l34 13v200h-211v118zM433 320l-143 -25v-1h73l-73 -20v-285h-118v331h261z" />
    <glyph glyph-name="u" unicode="u" horiz-adv-x="719" 
d="M82 368h-36l36 14v317h119v-314l51 -17h-51h-119zM579 294h74l-74 -21v-11q0 -113 -80 -193t-192.5 -80t-192.5 80t-80 193v57h260l-142 -24v-1h72l-72 -20v-19q0 -61 44 -105t106 -44h9q62 0 105.5 44t43.5 105v64h263zM509 368h-34l34 12v319h119v-313l54 -18h-54h-119
z" />
    <glyph glyph-name="v" unicode="v" horiz-adv-x="651" 
d="M101 369l33 12l-123 319h127l121 -315l49 -16h-43h-127h-37zM336 320h241l-97 -17h36l-35 -10l-30 -8l-113 -297h-120l-4 8l-124 324h127h119zM330 303l6 15l-111 -19l1 -4h69l-62 -18l44 -113l49 129zM385 369h-23l28 13l122 318h127l-120 -315l49 -16h-55h-128z" />
    <glyph glyph-name="w" unicode="w" horiz-adv-x="891" 
d="M739 292h78l-83 -23l-56 -280h-126l-109 329h167l-40 -8l1 -4h13l-12 -3l34 -103l21 118h260zM352 318h17l-19 -8l-106 -316l-2 -5h-113h-12l-1 6l-65 323h301zM171 296l17 -96l35 107l-20 5l-34 -6h39zM676 366h-16l17 6l59 327h122l-63 -316l50 -17h-53h-116zM403 373
l21 -7h-23h-125h-60h-116h-42l39 15l-64 318h122l57 -316l47 -15l20 7l107 324h119l2 -8l1 -2v0l106 -319l14 -4h-13h-124h-48l43 16l-40 120z" />
    <glyph glyph-name="x" unicode="x" horiz-adv-x="757" 
d="M514 304l-60 -17l251 -299h-154l-201 240l-201 -240h-155l278 332h270l-95 -16h67zM279 369l31 12l-268 319h155l201 -240l201 240h155l-263 -313l54 -18h-69h-156h-41z" />
    <glyph glyph-name="y" unicode="y" horiz-adv-x="628" 
d="M255 384l-15 28l-241 288h154l161 -192l160 192h155l-242 -288l-13 -27l51 -16h-52v-1h-118v1h-36l36 13v2zM466 320l-141 -24v-2h71l-71 -19v-287h-119v332h260z" />
    <glyph glyph-name="z" unicode="z" horiz-adv-x="680" 
d="M69 699h589v-118h-1v-1l-189 -192l60 -20h-79h-168h1h-17l26 10l201 203h-423v118zM357 276l-167 -169h420v-119h-588v119v0l3 2l208 211h258l-110 -19l-6 -7h46z" />
    <glyph glyph-name="braceleft" unicode="{" horiz-adv-x="1441" 
d="M307 320h1099q1 -14 -50 -36q-38 -16 -98 -102q-52 -76 -70 -90q-30 -23 -49 9q-21 37 -136.5 74.5t-238 61t-272.5 50t-185 33.5zM1148 407q55 -23 54 -38h-1168q37 8 196.5 36t289.5 53t253 65t145 79q25 44 70 -8q8 -9 66 -91q56 -79 94 -96z" />
    <glyph glyph-name="verticalbar" unicode="|" horiz-adv-x="227" 
d="M162 -58h-97v836h97v-836z" />
    <glyph glyph-name="braceright" unicode="}" horiz-adv-x="1441" 
d="M85 284q-52 22 -51 36h1100q-35 -7 -185.5 -33.5t-272.5 -50t-238 -61t-136 -74.5q-24 -42 -67 8q-5 7 -63 87q-52 73 -87 88zM522.5 602q21.5 -39 144.5 -79t253 -65t289.5 -53t196.5 -36h-1168q-1 15 54 38q40 17 102 106q55 79 72 95q35 33 56.5 -6z" />
    <glyph glyph-name="nonbreakingspace" unicode="&#xa0;" horiz-adv-x="356" 
 />
    <glyph glyph-name="exclamdown" unicode="&#xa1;" horiz-adv-x="239" 
d="M121.5 531q-23.5 0 -40 16.5t-16.5 40t16.5 40t40 16.5t40 -16.5t16.5 -40t-16.5 -40t-40 -16.5zM179 -19h-119v522h119v-522z" />
    <glyph glyph-name="cent" unicode="&#xa2;" horiz-adv-x="654" 
d="M540 205l82 -82l-6 -5q-38 -41 -89.5 -63.5t-107.5 -22.5v-84h-74v94q-80 23 -135 87.5t-63 149.5l-72 20h38l-101 18h250l-1 -1h3v-18q0 -62 44 -105.5t105 -43.5h10q66 0 111 50zM97 365h-55l56 21q3 59 29.5 110.5t70.5 87.5t99 51v96h74v-85q112 -1 192 -80l9 -11
l-82 -82l-6 6q-45 48 -110 48h-9q-62 0 -106 -44t-44 -105v-3l31 -10h-31h-118z" />
    <glyph glyph-name="sterling" unicode="&#xa3;" horiz-adv-x="674" 
d="M342 103l295 -1v-118h-447v3l1 87v28v13l4 2q24 13 37 36t14 49v54h-97v22l-76 21h38l-101 18h250l-1 -1h254v-60h-146v-45v-8v-1v-6q-1 -11 -1 -14q-4 -42 -24 -79zM101 365h-1h-60l61 23v35h96v43v8q0 10 1 20q4 40 22 78l7 12q7 12 15 23q6 8 14 16l0.5 1t1.5 1
q7 8 12 13q1 1 10 7q0 1 2.5 3t4.5 3q8 6 17 11q50 30 108 31q1 1 5 1h8v-1h173v-121h-188q-38 -3 -64.5 -31.5t-26.5 -66.5v-8v-43h145v-46l38 -12h-38h-363z" />
    <glyph glyph-name="yen" unicode="&#xa5;" horiz-adv-x="651" 
d="M257 385l-12 22l-241 288h154l161 -191l160 191h155l-242 -288l-14 -27v-6l29 -9h-29h-118h-58zM427 316v-43h104v-73h-104v-25h104v-73h-104v-118h-119v118h-100v73h100v25h-100v73h100v6l-72 20h38l-101 18h249v-1h5z" />
    <glyph glyph-name="section" unicode="&#xa7;" horiz-adv-x="668" 
d="M617 515v-15h-112v12q-2 28 -22.5 47.5t-48.5 19.5h-76q-30 0 -51 -21t-21 -51t21 -51t51 -21h76q72 0 124 -50l6 -5q20 -20 32 -45l6 -11h-1q15 -35 15 -72q0 -43 -20 -82q-36 -73 -115 -94l-6 -18h1l-6 -11q-24 -48 -71 -75q-6 -3 -13 -6q-15 -8 -29 -12q-24 -7 -50 -7
h-76q-51 0 -95 27t-67 73l-6 11h1q-14 33 -15 68v7h110l1 -7q0 -17 8 -31.5t21.5 -24t30.5 -12.5h98q27 4 44 24.5t17 46.5q0 30 -21 51t-51 21h-83v2h-3h-2q-5 0 -8 1q-4 0 -9 1t-8 1q-3 1 -9 2q-5 2 -7 2q-2 1 -9 3q-5 2 -6 3q-3 1 -9 4t-7 3q-2 1 -8 5q-1 0 -2 1
q-3 1 -4 2q-3 2 -9 7q-1 0 -2.5 1t-2.5 2q-6 5 -12 11l-6 5q-20 21 -32 44l-5 11q-15 35 -15 73q0 44 20 82q37 73 115 94q2 8 6 18l5 11q12 23 29 42q11 11 27 23q10 7 19 12q20 11 38 16q24 7 50 7h76q73 0 126 -51t56 -124h1zM196 424l-6 11h1q-1 1 -2 3t-1 3
q-29 -21 -29 -57q0 -30 21.5 -51t50.5 -21h76q72 0 125 -49q23 -22 38 -51l5 -11q0 -1 1 -3.5l1 -2.5q29 22 29 57q0 30 -21.5 51t-50.5 21h-84v1h-2.5h-2.5q-5 1 -8 1q-3 1 -9 1q-5 1 -7 2q-3 0 -9 2q-6 1 -7 2l-9 3q-5 2 -7 2q-2 1 -9 4l-2.5 1.5t-3.5 1.5q-3 2 -9 5
l-2 1.5t-3 2.5q-3 1 -9 6q-1 0 -2.5 1.5t-2.5 1.5q-7 6 -13 11l-6 6h1q-20 20 -32 44z" />
    <glyph glyph-name="copyright" unicode="&#xa9;" horiz-adv-x="836" 
d="M417.5 695q100.5 0 186 -50t135.5 -135.5t50 -186.5t-50 -186.5t-135.5 -135t-185.5 -49.5q-76 0 -145 29t-118.5 79t-79 119t-29.5 144q0 101 50 186.5t135.5 135.5t186 50zM417.5 48q113.5 0 194 80.5t80.5 194.5t-80.5 194.5t-194 80.5t-194 -80.5t-80.5 -194.5
t80.5 -194.5t194 -80.5zM418 440q-49 0 -83.5 -34.5t-34.5 -82.5t34.5 -82.5t83.5 -34.5t83 35l69 -68q-63 -64 -152 -64t-152 63t-63 151.5t63 151t152 62.5t152 -64l-69 -68q-34 35 -83 35z" />
    <glyph glyph-name="guillemotleft" unicode="&#xab;" horiz-adv-x="630" 
d="M413 477l-201 -155l201 -154l-73 -94l-316 245l3 4l-3 3l87 67l229 178zM589 412l-119 -92l119 -92l-72 -93l-237 183l2 3l-2 2l12 9l4 3l221 171z" />
    <glyph glyph-name="softhyphen" unicode="&#xad;" horiz-adv-x="0" 
 />
    <glyph glyph-name="registered" unicode="&#xae;" horiz-adv-x="468" 
d="M234 678q80 0 137 -57t57 -137t-57 -137t-137 -57t-137 57t-57 137t57 137t137 57zM233.5 355q53.5 0 91.5 38t38 91.5t-38 91.5t-91.5 38t-91 -38t-37.5 -91.5t37.5 -91.5t91 -38zM291 520q0 -17 -9.5 -31.5t-25.5 -21.5l31 -48l-28 -17l-39 62q-6 2 -11 5v-62h-33v113
q0 24 17 41t41 17t40.5 -17t16.5 -41zM233.5 495q10.5 0 18 7.5t7.5 18t-7.5 17.5t-18 7t-17.5 -7t-7 -17.5t7 -18t17.5 -7.5z" />
    <glyph glyph-name="degree" unicode="&#xb0;" horiz-adv-x="291" 
d="M145 719q47 0 80 -33t33 -79.5t-33 -80t-80 -33.5t-80 33.5t-33 80t33 79.5t80 33zM145 574q13 0 22.5 9.5t9.5 23t-9.5 23t-22.5 9.5t-22.5 -9.5t-9.5 -23t9.5 -23t22.5 -9.5z" />
    <glyph glyph-name="periodcentered" unicode="&#xb7;" horiz-adv-x="143" 
d="M71.5 242q-20.5 0 -34.5 14.5t-14 34.5t14 34t34.5 14t34.5 -14t14 -34t-14 -34.5t-34.5 -14.5z" />
    <glyph glyph-name="guillemotright" unicode="&#xbb;" horiz-adv-x="621" 
d="M593 323l3 -4l-87 -68l-229 -177l-72 94l200 154l-200 155l72 94l316 -245zM348 320l-12 -9l-225 -174l-72 93l119 92l-119 92l72 94l237 -183l-2 -2z" />
    <glyph glyph-name="questiondown" unicode="&#xbf;" horiz-adv-x="452" 
d="M300 180h119v-8q0 -79 -56 -135t-135 -56t-135 56t-56 135q0 30 10 60l3 8q3 9 7 17q18 36 50 62q11 9 20 15q8 5 16 9q4 1 8 4q35 18 38 58v100h119v-102h-1q-1 -27 -9 -53v-1l-3 -7q-20 -51 -63 -84q-14 -10 -30 -18q-2 -2 -4 -3v-2l-6 -1q-36 -20 -36 -62
q0 -20 9.5 -36.5t26 -26t36.5 -9.5q15 0 28 5.5t23 15t15.5 23t5.5 28.5v8zM250 533q-23 0 -39.5 16.5t-16.5 40t16.5 40t39.5 16.5t40 -16.5t17 -40t-17 -40t-40 -16.5z" />
    <glyph glyph-name="Agrave" unicode="&#xc0;" horiz-adv-x="686" 
d="M561 310l124 -333h-130l-98 261h-197l-98 -261h-130l107 288l-68 19h76l-146 26h560zM108 358h-51l59 22l116 309h156l120 -321l30 -10h-26h-404zM310 550l-55 -145h109zM361 700l-1 -1l-110 101v107l111 -101v-106z" />
    <glyph glyph-name="Aacute" unicode="&#xc1;" horiz-adv-x="685" 
d="M561 310l124 -333h-130l-98 261h-197l-98 -261h-130l107 288l-68 19h76l-146 26h560zM108 358h-51l59 22l116 309h156l120 -321l30 -10h-26h-404zM310 550l-55 -145h109zM370 800l-109 -101l-2 1v106l111 101v-107z" />
    <glyph glyph-name="Acircumflex" unicode="&#xc2;" horiz-adv-x="686" 
d="M561 310l124 -333h-130l-98 261h-197l-98 -261h-130l107 288l-68 19h76l-146 26h560zM108 358h-51l59 22l116 309h156l120 -321l30 -10h-26h-404zM310 550l-55 -145h109zM306 799l-109 -100l-1 1v106l109 99v2l1 -1v1v-2l110 -99v-106l-2 -1z" />
    <glyph glyph-name="Atilde" unicode="&#xc3;" horiz-adv-x="686" 
d="M561 310l124 -333h-130l-98 261h-197l-98 -261h-130l107 288l-68 19h76l-146 26h560zM108 358h-51l59 22l116 309h156l120 -321l30 -10h-26h-404zM310 550l-55 -145h109zM271 782q-16 1 -41 -19q-41 -32 -76 -32v81q7 0 26 15q14 11 23 17t29.5 13t41.5 6q17 -1 31 -7
t23.5 -17t14.5 -18.5t11 -19.5q9 -16 12.5 -19.5t9.5 -3.5q11 0 33 13q39 22 69 23l3 -80q-10 -1 -31 -13q-41 -24 -74 -24q-21 0 -37 6.5t-27.5 19t-17 20.5t-11.5 20q-9 17 -12 19z" />
    <glyph glyph-name="Adieresis" unicode="&#xc4;" horiz-adv-x="686" 
d="M561 310l124 -333h-130l-98 261h-197l-98 -261h-130l107 288l-68 19h76l-146 26h560zM108 358h-51l59 22l116 309h156l120 -321l30 -10h-26h-404zM310 550l-55 -145h109zM245 732q-22 0 -37 15.5t-15 37t15 37t37 15.5t37.5 -15.5t15.5 -37t-15.5 -37t-37.5 -15.5z
M371.5 732q-21.5 0 -37 15.5t-15.5 37t15.5 37t37 15.5t37 -15.5t15.5 -37t-15.5 -37t-37 -15.5z" />
    <glyph glyph-name="Aring" unicode="&#xc5;" horiz-adv-x="686" 
d="M561 310l124 -333h-130l-98 261h-197l-98 -261h-130l107 288l-68 19h76l-146 26h560zM108 358h-51l59 22l116 309h156l120 -321l30 -10h-26h-404zM310 550l-55 -145h109zM311.5 689q-46.5 0 -80 33.5t-33.5 80t33.5 79.5t80 33t79.5 -33t33 -79.5t-33 -80t-79.5 -33.5z
M311 835q-8 0 -15.5 -4.5t-12 -12t-4.5 -16.5q0 -13 9.5 -22.5t23 -9.5t23 9.5t9.5 23t-9.5 23t-23.5 9.5z" />
    <glyph glyph-name="AE" unicode="&#xc6;" horiz-adv-x="880" 
d="M108 358h-51l59 22l116 309h134h430v-118h-312v-139l6 -15h306v-50l27 -9h-27h-284h-404v0zM310 550l-55 -145h109zM844 250h-311v-153h311v-119h-159v-1h-130l-1 1h-34h-106v259h-154l-98 -260h-130l108 288l-69 19h76l-146 26h250h20h-1h250h324v-60z" />
    <glyph glyph-name="Ccedilla" unicode="&#xc7;" horiz-adv-x="601" 
d="M466 97h117v-118h-42v-36q0 -17 -11.5 -28.5t-28.5 -12.5q-38 -1 -53 -12q0 -3 1 -4q11 -10 56 -10h4v-81h-3h-7q-74 0 -108 35q-25 27 -24 66q2 34 28 54.5t65 28.5h-1q-122 3 -212 84t-107 200l-75 21h72v1l-142 25h259q0 -89 62 -151t150 -62zM72 358h-37l53 20
q8 128 101 218t221 93h6l1 0.5l1 0.5h8v-1h108v-118h-116q-88 0 -150 -62q-58 -57 -62 -139l35 -12h-35h-118h-16z" />
    <glyph glyph-name="Egrave" unicode="&#xc8;" horiz-adv-x="606" 
d="M570 247h-312v-153h312v-119h-324h-106v285l-74 21h74v1l-144 25h574v-60zM92 355h-56l56 21v310h430v-118h-312v-154h312v-50l27 -9h-27h-430zM328 705l-1 -1l-110 101v107l111 -101v-106z" />
    <glyph glyph-name="Eacute" unicode="&#xc9;" horiz-adv-x="610" 
d="M574 250h-312v-153h312v-119h-324h-106v285l-74 21h74v1l-144 25h574v-60zM96 358h-56l56 21v310h430v-118h-312v-154h312v-50l27 -9h-27h-430zM332 808l-109 -101l-2 1v106l111 101v-107z" />
    <glyph glyph-name="Ecircumflex" unicode="&#xca;" horiz-adv-x="610" 
d="M574 250h-312v-153h312v-119h-324h-106v285l-74 21h74v1l-144 25h574v-60zM96 358h-56l56 21v310h430v-118h-312v-154h312v-50l27 -9h-27h-430zM324 807l-109 -100l-1 1v106l109 99v2l1 -1l1 1v-2l109 -99v-106l-1 -1z" />
    <glyph glyph-name="Edieresis" unicode="&#xcb;" horiz-adv-x="606" 
d="M570 247h-312v-153h312v-119h-324h-106v285l-74 21h74v1l-144 25h574v-60zM92 355h-56l56 21v310h430v-118h-312v-154h312v-50l27 -9h-27h-430zM249 713q-11 0 -20.5 4.5t-16.5 11.5t-11 16.5t-4 20.5q0 22 15 37t37 15t37.5 -15t15.5 -37t-15.5 -37.5t-37.5 -15.5z
M375.5 713q-21.5 0 -37 15.5t-15.5 37.5t15.5 37t37 15t37 -15t15.5 -37t-15.5 -37.5t-37 -15.5z" />
    <glyph glyph-name="Igrave" unicode="&#xcc;" horiz-adv-x="297" 
d="M205 709l-1 -2l-110 101v107l111 -101v-105zM-4 307h257v-331h-118v286l-69 19h69v2zM86 356h-50l50 18v312h119v-318l37 -12h-37v-1h-119v1z" />
    <glyph glyph-name="Iacute" unicode="&#xcd;" horiz-adv-x="297" 
d="M205 808l-110 -101l-1 2v105l111 101v-107zM-4 307h257v-331h-118v286l-69 19h69v2zM86 356h-50l50 18v312h119v-318l37 -12h-37v-1h-119v1z" />
    <glyph glyph-name="Icircumflex" unicode="&#xce;" horiz-adv-x="297" 
d="M149 913l109 -99v-105l-1 -2l-109 100l-109 -100l-1 2v105l109 99v2l1 -1l1 1v-2zM86 686h119v-318l37 -12h-37v-1h-119v1h-50l50 18v312zM-4 307h257v-331h-118v286l-69 19h69v2z" />
    <glyph glyph-name="Idieresis" unicode="&#xcf;" horiz-adv-x="296" 
d="M82 715q-22 0 -37.5 15.5t-15.5 37.5t15.5 37t37.5 15t37 -15t15 -37t-15 -37.5t-37 -15.5zM208 715q-10 0 -20 4.5t-17 11.5t-11 16.5t-4 20.5q0 22 15.5 37t37 15t37 -15t15.5 -37t-15.5 -37.5t-37.5 -15.5zM205 355h-119v1h-50l50 18v312h119v-318l37 -12h-37v-1z
M-4 307h257v-331h-118v286l-69 19h69v2z" />
    <glyph glyph-name="Ntilde" unicode="&#xd1;" horiz-adv-x="726" 
d="M308 788q-16 0 -41 -19q-41 -33 -76 -33v81q7 0 26 15q14 11 23.5 17.5t29.5 13t42 5.5t39.5 -13t24.5 -22t15.5 -26.5t12 -20t9.5 -3.5q11 0 33 13q39 23 70 24l2 -81q-10 0 -31 -13q-41 -23 -74 -23q-16 0 -30.5 5t-23.5 11t-18 17t-12.5 17t-8.5 16q-9 17 -12 19z
M516 688h119v-319l35 -12h-35h-119h-15l15 5v326zM262 283v0v-306h-119v287l-66 19h66v2l-136 23h255v-25zM497 308h186v-331h-148l-2 4l-170 294l-66 19h56l-1 2l-73 12h202l9 -14l75 -130v116l-50 14h50v3zM95 357h-48l48 18v313h146l3 -4l189 -327h-137h-34l28 10
l-77 133v-138l19 -5h-19h-118z" />
    <glyph glyph-name="Ograve" unicode="&#xd2;" 
d="M369 703l-1 -1l-110 100v108l111 -102v-105zM91 357h-48l48 18v42q0 112 80 192t193 80t193 -79.5t80 -192.5v-47l40 -13h-41h-119h-47l47 18v46q0 62 -43.5 106t-105.5 44h-9q-62 0 -106 -44t-44 -106v-51l40 -13h-40h-118zM685 283v-1v-31q0 -113 -80 -192.5
t-192.5 -79.5t-192.5 79.5t-80 192.5v13l-67 19h67v2l-137 23h255v-25v0v-38q0 -62 43.5 -105.5t105.5 -43.5h9q62 0 106 43.5t44 105.5v19l-66 19h66v2l-136 23h255v-25z" />
    <glyph glyph-name="Oacute" unicode="&#xd3;" 
d="M426 802l-110 -100l-1 1v105l111 102v-108zM91 357h-48l48 18v42q0 113 80 192.5t193 79.5t193 -79.5t80 -192.5v-47l40 -13h-41h-119h-47l47 18v46q0 62 -43.5 106t-105.5 44h-9q-62 0 -106 -44t-44 -106v-51l40 -13h-40h-118zM685 283v-1v-31q0 -113 -80 -192.5
t-192.5 -79.5t-192.5 79.5t-80 192.5v13l-67 19h67v2l-137 23h255v-25v0v-38q0 -62 43.5 -105.5t105.5 -43.5h9q62 0 106 43.5t44 105.5v19l-66 19h66v2l-136 23h255v-25z" />
    <glyph glyph-name="Ocircumflex" unicode="&#xd4;" 
d="M362 801l-109 -99l-1 1v105l109 100v2l1 -1l1 1v-2l109 -100v-105l-1 -1zM91 357h-48l48 18v42q0 112 80 192t193 80t193 -79.5t80 -192.5v-47l40 -13h-41h-119h-47l47 18v46q0 62 -43.5 106t-105.5 44h-9q-62 0 -106 -44t-44 -106v-51l40 -13h-40h-118zM685 283v-1v-31
q0 -113 -80 -192.5t-192.5 -79.5t-192.5 79.5t-80 192.5v13l-67 19h67v2l-137 23h255v-25v0v-38q0 -62 43.5 -105.5t105.5 -43.5h9q62 0 106 43.5t44 105.5v19l-66 19h66v2l-136 23h255v-25z" />
    <glyph glyph-name="Otilde" unicode="&#xd5;" 
d="M295 786q-17 0 -41 -19q-41 -33 -76 -33v81q7 0 26 15q14 11 23 17.5t29.5 13t41.5 5.5q22 -1 40 -13t24.5 -22t15.5 -26.5t12 -20t10 -3.5q11 0 33 13q38 23 69 24l3 -81q-10 0 -32 -13q-40 -23 -73 -23q-17 0 -31.5 5t-23.5 11t-17.5 17t-12 17t-9.5 16q-8 17 -11 19z
M91 357h-48l48 18v42q0 112 80 192t193 80t193 -79.5t80 -192.5v-47l40 -13h-40h-120h-47l47 18v46q0 62 -43.5 106t-105.5 44h-9q-62 0 -106 -44t-44 -106v-51l40 -13h-40h-118zM685 283v-1v-31q0 -113 -80 -192.5t-192.5 -79.5t-192.5 79.5t-80 192.5v13l-67 19h67v2
l-137 23h255v-25v0v-38q0 -62 43.5 -105.5t105.5 -43.5h9q62 0 106 43.5t44 105.5v19l-66 19h66v2l-136 23h255v-25z" />
    <glyph glyph-name="Odieresis" unicode="&#xd6;" 
d="M297 732q-22 0 -37 15t-15 37t15 37.5t37 15.5t37.5 -15.5t15.5 -37.5t-15.5 -37t-37.5 -15zM424 732q-15 0 -27 7t-19 19t-7 26q0 22 15.5 37.5t37 15.5t37 -15.5t15.5 -37.5t-15.5 -37t-36.5 -15zM91 357h-48l48 18v42q0 112 80 192t193 80t193 -79.5t80 -192.5v-47
l40 -13h-41h-119h-47l47 18v46q0 62 -43.5 106t-105.5 44h-9q-62 0 -106 -44t-44 -106v-51l40 -13h-40h-118zM685 283v-1v-31q0 -113 -80 -192.5t-192.5 -79.5t-192.5 79.5t-80 192.5v13l-67 19h67v2l-137 23h255v-25v0v-38q0 -62 43.5 -105.5t105.5 -43.5h9q62 0 106 43.5
t44 105.5v19l-66 19h66v2l-136 23h255v-25z" />
    <glyph glyph-name="multiply" unicode="&#xd7;" horiz-adv-x="404" 
d="M368 414l-98 -98l98 -98l-68 -69l-98 98l-98 -98l-69 69l98 98l-98 98l69 68l98 -98l98 98z" />
    <glyph glyph-name="Oslash" unicode="&#xd8;" horiz-adv-x="716" 
d="M80 357h-37l48 18v42q0 113 80 192.5t193 79.5q67 0 127 -31l50 80l83 -52l-56 -89q69 -78 69 -180v-47l40 -13h-41h-119h-47l47 18v46q0 36 -16 68l-83 -132h-114h-33l43 16l115 184q-29 14 -61 14h-9q-62 0 -106 -44t-44 -106v-51l40 -13h-40h-118h-11zM685 283v-1v-31
q0 -113 -80 -192.5t-193 -79.5q-69 0 -130 33l-50 -80l-82 51l56 90q-66 77 -66 178v13l-67 19h67v2l-137 23h255v-25v0v-38q0 -34 15 -65l72 117l-67 11h407v-25zM416 96q62 0 106 43.5t44 105.5v19l-66 19h66v2l-103 18l-14 -24h-1l-105 -169q31 -14 64 -14h9z" />
    <glyph glyph-name="Ugrave" unicode="&#xd9;" horiz-adv-x="724" 
d="M421 704l-1 -2l-110 101v107l111 -101v-105zM432 313h257v-58q0 -112 -80 -192t-192.5 -80t-192.5 80t-80 192v13l-71 19h71v2l-141 24h259v-64q0 -62 44 -105.5t105 -43.5h10q62 0 105.5 43.5t43.5 105.5v20l-68 18h68v2zM95 362h-52l52 19v312h119v-320l35 -11h-35v-1
h-119v1zM522 362h-50l50 18v313h119v-319l38 -12h-38v-1h-119v1z" />
    <glyph glyph-name="Uacute" unicode="&#xda;" horiz-adv-x="724" 
d="M474 803l-110 -101l-1 2v105l111 101v-107zM432 313h257v-58q0 -112 -80 -192t-192.5 -80t-192.5 80t-80 192v13l-71 19h71v2l-141 24h259v-64q0 -62 44 -105.5t105 -43.5h10q62 0 105.5 43.5t43.5 105.5v20l-68 18h68v2zM95 362h-52l52 19v312h119v-320l35 -11h-35v-1
h-119v1zM472 362l50 18v313h119v-319l38 -12h-38v-1h-119v1h-50z" />
    <glyph glyph-name="Ucircumflex" unicode="&#xdb;" horiz-adv-x="724" 
d="M369 802l-109 -100l-1 2v105l109 100v1h1h1v-1l109 -100v-105l-1 -2zM432 313h257v-58q0 -112 -80 -192t-192.5 -80t-192.5 80t-80 192v13l-71 19h71v2l-141 24h259v-64q0 -62 44 -105.5t105 -43.5h10q62 0 105.5 43.5t43.5 105.5v20l-68 18h68v2zM95 362h-52l52 19v312
h119v-320l35 -11h-35v-1h-119v1zM472 362l50 18v313h119v-319l38 -12h-38v-1h-119v1h-50z" />
    <glyph glyph-name="Udieresis" unicode="&#xdc;" horiz-adv-x="724" 
d="M295 743q-10 0 -20 4.5t-17 11.5t-11 16.5t-4 20.5q0 21 15.5 36.5t37 15.5t37 -15.5t15.5 -37t-15.5 -37t-37.5 -15.5zM422 743q-22 0 -37.5 15.5t-15.5 37t15.5 37t37.5 15.5t37 -15.5t15 -37t-15 -37t-37 -15.5zM432 313h257v-58q0 -112 -80 -192t-192.5 -80
t-192.5 80t-80 192v13l-71 19h71v2l-141 24h259v-64q0 -62 44 -105.5t105 -43.5h10q61 0 105 43.5t44 105.5v20l-68 18h68v2zM95 362h-52l52 19v312h119v-320l35 -11h-35v-1h-119v1zM472 362l50 18v313h119v-319l38 -12h-38v-1h-119v1h-50z" />
    <glyph glyph-name="Yacute" unicode="&#xdd;" horiz-adv-x="630" 
d="M373 813l-110 -100l-1 1v105l111 102v-108zM254 381l-13 24l-241 288h154l161 -192l160 192h155l-242 -288l-14 -28v-4l36 -11h-36v-1h-118v1h-53zM164 313h259v-332h-119v287l-70 19h70v2z" />
    <glyph glyph-name="germandbls" unicode="&#xdf;" horiz-adv-x="624" 
d="M211 362h-119h-36l36 14v317h204v-1q37 -2 70.5 -17.5t57.5 -41t38 -60t14 -71.5q0 -30 -9 -59q41 -22 69 -59l66 -22h-52h1h-262v68q40 2 59 37q10 17 10 36q0 29 -21 50t-50 22h-76v-204l30 -9h-30zM44 314h186l-68 -12v-320h-118v332zM515 288h42l-38 -11
q13 -36 13 -74q0 -89 -62.5 -153t-150.5 -67v-1h-78v119h78q39 2 67 31.5t28 69.5q0 34 -19.5 60.5t-51.5 36.5q-14 5 -31 5h-71v10h386l-115 -20q2 -3 3 -6z" />
    <glyph glyph-name="agrave" unicode="&#xe0;" horiz-adv-x="678" 
d="M609 289l-62 -17l108 -290h-130l-98 261h-197l-98 -261h-130l124 333h553l-139 -24v-2h69zM175 363h-35l41 15l118 316h156l118 -315l48 -16h-42h-404zM377 555l-54 -145h109zM428 707l-1 -1l-110 100v108l111 -102v-105z" />
    <glyph glyph-name="aacute" unicode="&#xe1;" horiz-adv-x="678" 
d="M609 289l-62 -17l108 -290h-130l-98 261h-197l-98 -261h-130l124 333h553l-139 -24v-2h69zM175 363h-35l41 15l118 316h156l118 -315l48 -16h-42h-404zM377 555l-54 -145h109zM439 806l-110 -100l-1 1v105l111 102v-108z" />
    <glyph glyph-name="acircumflex" unicode="&#xe2;" horiz-adv-x="678" 
d="M609 289l-62 -17l108 -290h-130l-98 261h-197l-98 -261h-130l124 333h553l-139 -24v-2h69zM175 363h-35l41 15l118 316h156l118 -315l48 -16h-42h-404zM377 555l-54 -145h109zM379 805l-108 -99l-2 1v105l109 100v2l1 -1l1 1v-2l109 -100v-105l-1 -1z" />
    <glyph glyph-name="atilde" unicode="&#xe3;" horiz-adv-x="678" 
d="M609 289l-62 -17l108 -290h-130l-98 261h-197l-98 -261h-130l124 333h553l-139 -24v-2h69zM175 363h-35l41 15l118 316h156l118 -315l48 -16h-42h-404zM377 555l-54 -145h109zM327 789q-11 0 -18.5 -4t-22.5 -15q-41 -32 -76 -32v80q7 0 26 15q48 39 95 36
q22 -1 39.5 -13t24.5 -22t15.5 -26.5t12 -19.5t9.5 -3q11 0 33 13q39 22 70 23l2 -81q-10 0 -31 -12q-41 -24 -74 -24q-20 0 -36.5 6.5t-28 18.5t-16.5 20t-12 21q-9 17 -12 19z" />
    <glyph glyph-name="adieresis" unicode="&#xe4;" horiz-adv-x="678" 
d="M609 289l-62 -17l108 -290h-130l-98 261h-197l-98 -261h-130l124 333h553l-139 -24v-2h69zM175 363h-35l41 15l118 316h156l118 -315l48 -16h-42h-404zM377 555l-54 -145h109zM317.5 739q-21.5 0 -37 15.5t-15.5 37t15.5 37t37 15.5t37 -15.5t15.5 -37t-15.5 -37
t-37 -15.5zM444 739q-22 0 -37 15.5t-15 37t15 37t37 15.5t37.5 -15.5t15.5 -37t-15.5 -37t-37.5 -15.5z" />
    <glyph glyph-name="aring" unicode="&#xe5;" horiz-adv-x="678" 
d="M609 289l-62 -17l108 -290h-130l-98 261h-197l-98 -261h-130l124 333h553l-139 -24v-2h69zM175 363h-35l41 15l118 316h156l118 -315l48 -16h-42h-404zM377 555l-54 -145h109zM378 696q-30 0 -56 15t-41.5 41t-15.5 57q0 47 33.5 80t79.5 33q31 0 57 -15t41 -41t15 -57
q0 -47 -33 -80t-80 -33zM378.5 841q-13.5 0 -23 -9.5t-9.5 -22.5t9.5 -22.5t23 -9.5t23 9.5t9.5 22.5t-9.5 22.5t-23 9.5z" />
    <glyph glyph-name="ae" unicode="&#xe6;" horiz-adv-x="962" 
d="M175 363h-35l41 15l118 316h156h412v-118h-312v-149h1l1 -5h310v-45l44 -14h-44h-430h-262zM377 555l-54 -145h109zM820 289h78l-79 -22v-12h-312v-153h312v-119h-164v-1h-130v1h-30h-106v260h-159l-98 -261h-130l125 333h692h149z" />
    <glyph glyph-name="ccedilla" unicode="&#xe7;" horiz-adv-x="537" 
d="M202 164q62 -62 150 -62h117v-118h-33v-36q0 -11 -5.5 -20t-14.5 -14.5t-20 -5.5q-38 -1 -53 -13q0 -2 1 -3q10 -11 56 -10h3v-81h-2h-7q-74 0 -108 35q-26 26 -24 65q1 34 26.5 54.5t63.5 28.5h-2h-5q-134 4 -228.5 100t-94.5 231h260l-140 -25v-1h70l-67 -19
q13 -61 57 -106zM409 694h108v-118h-116q-88 0 -150 -62q-58 -57 -62 -139l35 -12h-35h-119h-36l37 14q6 130 99 222t223 95h6h1h1h8z" />
    <glyph glyph-name="egrave" unicode="&#xe8;" horiz-adv-x="617" 
d="M357 707l-1 -1l-110 100v108l111 -102v-105zM476 289h78l-80 -22v-12h-311v-153h311v-119h-324h-106v332h430h150zM92 363h-39l39 15v316h431v-118h-312v-154h312v-45l43 -14h-43h-431z" />
    <glyph glyph-name="eacute" unicode="&#xe9;" horiz-adv-x="617" 
d="M392 806l-110 -100l-1 1v105l111 102v-108zM476 289h78l-80 -22v-12h-311v-153h311v-119h-324h-106v332h430h150zM92 363h-39l39 15v316h431v-118h-312v-154h312v-45l43 -14h-43h-431z" />
    <glyph glyph-name="ecircumflex" unicode="&#xea;" horiz-adv-x="617" 
d="M314 805l-109 -99l-1 1v105l109 100v2l1 -1v1v-2l110 -100v-105l-2 -1zM476 289h78l-80 -22v-12h-311v-153h311v-119h-324h-106v332h430h149zM92 363h-39l39 15v316h431v-118h-312v-154h312v-45l43 -14h-43h-431z" />
    <glyph glyph-name="edieresis" unicode="&#xeb;" horiz-adv-x="617" 
d="M253 739q-22 0 -37 15.5t-15 37t15 37t37 15.5t37.5 -15.5t15.5 -37t-15.5 -37t-37.5 -15.5zM379.5 739q-21.5 0 -37 15.5t-15.5 37t15.5 37t37 15.5t37 -15.5t15.5 -37t-15.5 -37t-37 -15.5zM476 289h78l-80 -22v-12h-311v-153h311v-119h-324h-106v332h430h150zM92 363
h-39l39 15v316h431v-118h-312v-154h312v-45l43 -14h-43h-431z" />
    <glyph glyph-name="igrave" unicode="&#xec;" horiz-adv-x="307" 
d="M173 286h78l-90 -25v-280h-118v331h278zM91 360h-18l18 7v324h119v-317l49 -14h-49h-119zM188 703l-2 -2l-109 101v107l111 -101v-105z" />
    <glyph glyph-name="iacute" unicode="&#xed;" horiz-adv-x="307" 
d="M173 286h78l-90 -25v-280h-118v331h278zM91 360h-18l18 7v324h119v-317l49 -14h-49h-119zM236 802l-110 -101l-1 2v105l111 101v-107z" />
    <glyph glyph-name="icircumflex" unicode="&#xee;" horiz-adv-x="307" 
d="M210 360h-119h-18l18 7v324h119v-317l49 -14h-49zM173 286h78l-90 -25v-280h-118v331h278zM154 801l-109 -100l-1 2v105l109 100v1h1h1v-1l109 -100v-105l-1 -2z" />
    <glyph glyph-name="idieresis" unicode="&#xef;" horiz-adv-x="307" 
d="M210 360h-119h-18l18 7v324h119v-317l48 -14h-48zM173 286h78l-90 -25v-280h-118v331h278zM87.5 719q-21.5 0 -37 15.5t-15.5 37t15.5 37t37 15.5t37 -15.5t15.5 -37t-15.5 -37t-37 -15.5zM214 719q-22 0 -37 15.5t-15 37t15 37t37 15.5t37.5 -15.5t15.5 -37t-15.5 -37
t-37.5 -15.5z" />
    <glyph glyph-name="ntilde" unicode="&#xf1;" horiz-adv-x="707" 
d="M512 683h118v-308l68 -23h-68h-118v331zM627 292l-5 -1l-11 -2h65l-49 -14l-45 -12v-290h-148l-2 4l-182 314l-2 4l-88 -15v-2h68l-68 -19v-286h-118v331h653zM397 274l66 -115v144l-67 -12l-8 -1v-1h63zM90 352h-15l15 6v325h147l2 -4l182 -314l38 -13h-31h-136h-1h-1
l1 1l-82 142v-128l51 -15h-51h-119zM314 780q-17 0 -41 -19q-41 -33 -76 -33v81q7 0 26 15q14 11 23 17.5t29.5 13t41.5 5.5q14 -1 26 -5.5t19.5 -10.5t15.5 -15.5t11 -15t8 -15.5q9 -16 12.5 -19.5t9.5 -3.5q11 0 33 13q39 23 69 24l3 -81q-10 0 -31 -13q-41 -23 -74 -23
q-21 0 -37 6t-27.5 18.5t-17 20.5t-11.5 21q-9 17 -12 19z" />
    <glyph glyph-name="ograve" unicode="&#xf2;" horiz-adv-x="690" 
d="M65 360h-21l32 11v49q0 113 80 193t193 80t193 -80t80 -193v-45l51 -15h-51h-119h-31l31 10v55q0 62 -44 105.5t-106 43.5h-9q-62 0 -105.5 -43.5t-43.5 -105.5v-50l50 -15h-50h-119h-11zM573 286h60l-60 -16v-15q0 -113 -80 -193t-192.5 -80t-192.5 80t-80 193v57h264
l-146 -25v-1h76l-76 -21v-16q0 -62 44 -106t105 -44h10q61 0 105 44t44 106v63h249l-130 -23v-3zM376 703l-1 -2l-110 101v107l111 -101v-105z" />
    <glyph glyph-name="oacute" unicode="&#xf3;" horiz-adv-x="690" 
d="M65 360h-21l32 11v49q0 113 80 193t193 80t193 -80t80 -193v-45l51 -15h-51h-119h-31l31 10v55q0 62 -44 105.5t-106 43.5h-9q-62 0 -105.5 -43.5t-43.5 -105.5v-50l50 -15h-50h-119h-11zM573 289v-3h60l-60 -16v-15q0 -113 -80 -193t-192.5 -80t-192.5 80t-80 193v57
h264l-146 -25v-1h76l-76 -21v-16q0 -62 44 -106t105 -44h10q61 0 105 44t44 106v63h249zM446 802l-110 -101l-1 2v105l111 101v-107z" />
    <glyph glyph-name="ocircumflex" unicode="&#xf4;" horiz-adv-x="690" 
d="M65 360h-21l32 11v49q0 113 80 193t193 80t193 -80t80 -193v-45l51 -15h-51h-119h-31l31 10v55q0 62 -44 105.5t-106 43.5h-9q-62 0 -105.5 -43.5t-43.5 -105.5v-50l50 -15h-50h-119h-11zM573 286h60l-60 -16v-15q0 -113 -80 -193t-192.5 -80t-192.5 80t-80 193v57h264
l-146 -25v-1h76l-76 -21v-16q0 -62 44 -106t105 -44h10q61 0 105 44t44 106v63h249l-130 -23v-3zM348 801l-109 -100l-1 2v105l109 100v1h1v-1l110 -100v-105l-2 -2z" />
    <glyph glyph-name="otilde" unicode="&#xf5;" horiz-adv-x="690" 
d="M65 360h-21l32 11v49q0 113 80 193t193 80t193 -80t80 -193v-45l51 -15h-51h-119h-31l31 10v55q0 62 -44 105.5t-106 43.5h-9q-62 0 -105.5 -43.5t-43.5 -105.5v-50l50 -15h-50h-119h-11zM573 286h60l-60 -16v-15q0 -113 -80 -193t-192.5 -80t-192.5 80t-80 193v57h264
l-146 -25v-1h76l-76 -21v-16q0 -62 44 -106t105 -44h10q61 0 105 44t44 106v63h249l-130 -23v-3zM303 780q-16 0 -40 -19q-41 -33 -77 -33v81q8 0 26 15q48 38 95 36q17 -1 30.5 -7t23.5 -17t14.5 -18.5t11.5 -19.5q8 -16 11.5 -19.5t9.5 -3.5q12 0 33 13q39 23 70 24l2 -81
q-10 0 -31 -13q-41 -23 -74 -23q-16 0 -30.5 5t-23.5 11t-17.5 17t-12.5 17t-9 16q-9 17 -12 19z" />
    <glyph glyph-name="odieresis" unicode="&#xf6;" horiz-adv-x="690" 
d="M65 360h-21l32 11v49q0 113 80 193t193 80t193 -80t80 -193v-45l51 -15h-51h-119h-31l31 10v55q0 62 -44 105.5t-106 43.5h-9q-62 0 -105.5 -43.5t-43.5 -105.5v-50l50 -15h-50h-119h-11zM573 286h60l-60 -16v-15q0 -113 -80 -193t-192.5 -80t-192.5 80t-80 193v57h264
l-146 -25v-1h76l-76 -21v-16q0 -62 44 -106t105 -44h10q61 0 105 44t44 106v63h249l-130 -23v-3zM281.5 719q-21.5 0 -37 15.5t-15.5 37t15.5 37t37 15.5t37 -15.5t15.5 -37t-15.5 -37t-37 -15.5zM408 719q-22 0 -37 15.5t-15 37t15 37t37 15.5t37.5 -15.5t15.5 -37
t-15.5 -37t-37.5 -15.5z" />
    <glyph glyph-name="oslash" unicode="&#xf8;" horiz-adv-x="724" 
d="M79 361h-32l33 12v48q0 113 79.5 193t192.5 80q68 0 128 -32l49 80l83 -51l-56 -90q69 -77 69 -180v-41l56 -19h-56h-119h-31l31 12v53q0 36 -17 68l-77 -124l24 -9h-30h-114l125 201q-29 13 -61 13h-9q-62 0 -105.5 -44t-43.5 -105v-46l55 -19h-55h-119zM576 287h76
l-76 -21v-10q0 -113 -80 -193t-193 -80q-69 0 -130 33l-50 -80l-82 52l56 90q-66 77 -66 178v57h390l-71 -13l-116 -185q31 -15 64 -15h10q61 0 105 44t44 105v64h265zM164 185l73 118l-88 -16h76l-76 -21v-17q0 -33 15 -64z" />
    <glyph glyph-name="ugrave" unicode="&#xf9;" horiz-adv-x="713" 
d="M82 356h-36l36 14v317h119v-314l51 -17h-51h-119zM579 283v-1h74l-74 -21v-11q0 -113 -80 -193t-192.5 -80t-192.5 80t-80 193v58h260l-142 -25v-1h72l-72 -20v-18q0 -62 44 -106t106 -44h9q62 0 105.5 44t43.5 106v64h263zM509 356h-34l34 13v318h119v-313l54 -18h-54
h-119zM385 702l-1 -2l-109 101v108l110 -102v-105z" />
    <glyph glyph-name="uacute" unicode="&#xfa;" horiz-adv-x="713" 
d="M82 356h-36l36 14v317h119v-314l51 -17h-51h-119zM579 283v-1h74l-74 -21v-11q0 -113 -80 -193t-192.5 -80t-192.5 80t-80 193v58h260l-142 -25v-1h72l-72 -20v-18q0 -62 44 -106t106 -44h9q62 0 105.5 44t43.5 106v64h263zM509 356h-34l34 13v318h119v-313l54 -18h-54
h-119zM442 801l-110 -101l-1 2v105l111 102v-108z" />
    <glyph glyph-name="ucircumflex" unicode="&#xfb;" horiz-adv-x="713" 
d="M82 356h-36l36 14v317h119v-314l51 -17h-51h-119zM579 283v-1h74l-74 -21v-11q0 -113 -80 -193t-192.5 -80t-192.5 80t-80 193v58h260l-142 -25v-1h72l-72 -20v-18q0 -62 44 -106t106 -44h9q62 0 105.5 44t43.5 106v64h263zM509 356h-34l34 13v318h119v-313l54 -18h-54
h-119zM354 800l-109 -100l-1 2v105l109 100v2l1 -1l1 1v-2l109 -100v-105l-1 -2z" />
    <glyph glyph-name="udieresis" unicode="&#xfc;" horiz-adv-x="713" 
d="M82 356h-36l36 14v317h119v-314l51 -17h-51h-119zM579 283v-1h74l-74 -21v-11q0 -113 -80 -193t-192.5 -80t-192.5 80t-80 193v58h260l-142 -25v-1h72l-72 -20v-18q0 -62 44 -106t106 -44h9q62 0 105.5 44t43.5 106v64h263zM509 356h-34l34 13v318h119v-313l54 -18h-54
h-119zM285.5 734q-21.5 0 -37 15t-15.5 37t15.5 37.5t37 15.5t37 -15.5t15.5 -37.5t-15.5 -37t-37 -15zM412.5 734q-21.5 0 -37 15t-15.5 37t15.5 37.5t37 15.5t37 -15.5t15.5 -37.5t-15.5 -37t-37 -15z" />
    <glyph glyph-name="yacute" unicode="&#xfd;" horiz-adv-x="622" 
d="M252 386l-15 28l-241 288h154l161 -192l160 192h155l-242 -288l-13 -27l51 -16h-52v-1h-118v1h-36l36 13v2zM463 322l-141 -25v-1h71l-71 -19v-287h-119v332h260zM403 826l-110 -100l-1 1v105l111 102v-108z" />
    <glyph glyph-name="ydieresis" unicode="&#xff;" horiz-adv-x="622" 
d="M252 386l-15 28l-241 288h154l161 -192l160 192h155l-242 -288l-13 -27l51 -16h-52v-1h-118v1h-36l36 13v2zM463 322l-141 -25v-1h71l-71 -19v-287h-119v332h260zM250 734q-22 0 -37.5 15t-15.5 37t15.5 37.5t37.5 15.5t37 -15.5t15 -37.5t-15 -37t-37 -15zM376.5 734
q-21.5 0 -37 15t-15.5 37t15.5 37.5t37 15.5t37 -15.5t15.5 -37.5t-15.5 -37t-37 -15z" />
    <glyph glyph-name="dotlessi" unicode="&#x131;" horiz-adv-x="307" 
d="M173 286h78l-90 -25v-280h-118v331h278zM91 360h-18l18 7v324h119v-317l49 -14h-49h-119z" />
    <glyph glyph-name="OE" unicode="&#x152;" horiz-adv-x="879" 
d="M533 248v-153h312v-118h-324l-106 2h-3q-112 0 -192 80t-80 192v13l-67 19h67v2l-137 23h255v-25v0v-38q0 -62 43.5 -105.5t105.5 -43.5h8v166l-74 21h74l-144 25h574v-60h-312zM80 357h-37l48 18v42q0 113 80 192.5t193 79.5l432 -1v-118h-311v-155h311v-49l28 -9h-28
h-430h-56l56 21v193h-7q-62 0 -106 -44t-44 -106v-51l40 -13h-40h-118h-11z" />
    <glyph glyph-name="oe" unicode="&#x153;" horiz-adv-x="893" 
d="M746 288h78l-80 -22v-12h-311v-154h311v-118h-324h-106v1q-9 -1 -14 -1q-112 0 -192 80t-80 193v57h264l-146 -25v-1h76l-76 -21v-16q0 -62 44 -106t105 -44h10q3 0 9 1v213h430h150zM65 360l-21 1l32 10v49q0 113 80 193t193 80h14h430v-118h-312v-155h312v-44l43 -14
h-43h-124l4 -2h-51h-119h-31l3 2h-112h-40l40 15v197h-10h-9q-62 0 -105.5 -43.5t-43.5 -105.5v-50l50 -15h-50h-119h-11z" />
    <glyph glyph-name="Scaron" unicode="&#x160;" horiz-adv-x="583" 
d="M270 696v2l-109 100v105l1 1l109 -99l109 99l1 -1v-105l-109 -100v-2l-1 1zM50 415q-17 38 -17 78q0 39 16 76h-1l6 12q16 31 41 54q19 18 43 31q11 6 24 10q32 12 66 12h81q80 0 137.5 -57t57.5 -138v-8h-118v8q0 32 -22.5 54t-54.5 22h-81q-32 0 -54.5 -22.5
t-22.5 -54.5t22.5 -54.5t54.5 -22.5h81q73 0 128 -48l33 -11h-432l39 15q-13 16 -22 32zM553 172q0 -39 -16 -77l-6 -11q-25 -51 -73 -80q-11 -6 -19 -9q-3 -2 -6 -3q-12 -5 -22 -8q-26 -7 -54 -7h-80q-56 0 -102.5 28.5t-71.5 78.5l-6 11h1q-16 36 -16 73v8h117l1 -8
q1 -27 19 -48t46 -25h105q28 5 46.5 26.5t18.5 49.5q0 32 -23 54.5t-55 22.5h-8l-80 2h-3h-3q-5 0 -8 1q-4 0 -10 1q-5 1 -8 2q-4 0 -9.5 1.5t-7.5 2.5q-3 1 -10 3q-6 2 -7 3q-2 1 -7 3l-63 17h30l-133 23h108v1h359q21 -22 34 -48l6 -12q16 -37 16 -76z" />
    <glyph glyph-name="scaron" unicode="&#x161;" horiz-adv-x="610" 
d="M92 420q-17 37 -17 77t16 77l6 11q15 31 40 54q19 19 43 31q12 6 24 11q32 11 66 11h81q81 0 138 -57t57 -137v-9h-118v9q0 20 -10.5 37.5t-28 28t-38.5 10.5h-81q-31 0 -54 -23t-23 -54.5t23 -54t54 -22.5h81q66 0 118 -40l59 -20h-432l27 10q-16 18 -26 38zM486 289h30
l-46 -13q4 -6 7 -12l6 -11h-1q16 -38 16 -77t-16 -76h1l-6 -12q-26 -50 -74 -79q-10 -6 -19 -10q-3 -2 -6 -3q-12 -5 -22 -8q-26 -7 -53 -7h-81q-55 0 -102 28.5t-72 78.5l-6 12h1q-15 35 -16 72v8h118v-8q1 -27 19.5 -47.5t45.5 -24.5h105q28 4 46.5 25.5t18.5 50.5
q0 31 -22.5 54t-54.5 23h-8l-81 1h-3h-3q-5 1 -8 1q-4 0 -10 1q-5 1 -8 2q-4 1 -9.5 2t-7.5 2l-9 3q-7 3 -8 3q-3 1 -9 4l-2.5 1.5t-4.5 1.5q-2 2 -9 6q-1 0 -3 1.5t-3 1.5q-3 2 -10 7q0 1 -2 2t-3 2q-7 5 -13 11l-6 6h359h1h176zM312 698v2l-109 99v106l1 1l109 -100
l108 100l2 -1v-106l-109 -99v-2l-1 1z" />
    <glyph glyph-name="Ydieresis" unicode="&#x178;" horiz-adv-x="630" 
d="M242 742q-22 0 -37.5 15.5t-15.5 37.5t15.5 37t37.5 15t37 -15t15 -37t-15 -37.5t-37 -15.5zM368.5 742q-21.5 0 -37 15.5t-15.5 37.5t15.5 37t37 15t37 -15t15.5 -37t-15.5 -37.5t-37 -15.5zM254 381l-13 24l-241 288h154l161 -192l160 192h155l-242 -288l-14 -28v-4
l36 -11h-36v-1h-118v1h-53zM164 313h259v-332h-119v287l-70 19h70v2z" />
    <glyph glyph-name="zcaron" unicode="&#x17e;" horiz-adv-x="680" 
d="M69 701h589v-118h-1v-1l-189 -192l60 -19h-79v-1h-167v1h-17l26 9l201 203h-423v118zM357 278l-167 -169h420v-118h-588v118v0l3 2l208 211h258l-110 -19l-6 -7h46zM354 709v2l-109 100v105l1 1l109 -99l109 99l1 -1v-105l-109 -100v-2l-1 1z" />
    <glyph glyph-name="endash" unicode="&#x2013;" horiz-adv-x="380" 
d="M355 274h-331v97h331v-97z" />
    <glyph glyph-name="emdash" unicode="&#x2014;" horiz-adv-x="412" 
d="M387 274h-363v97h363v-97z" />
    <glyph glyph-name="quoteleft" unicode="&#x2018;" horiz-adv-x="157" 
d="M113 637q16 -18 16.5 -38.5t-14.5 -36.5q-15 -15 -34 -15q-14 0 -25.5 5.5t-19.5 18.5t-8 32q0 23 8.5 48t19.5 41t20 21q3 2 7 2q3 0 5 -1q6 -4 5 -12q-1 -20 2.5 -34t7 -19t10.5 -12z" />
    <glyph glyph-name="quoteright" unicode="&#x2019;" horiz-adv-x="157" 
d="M76 715q21 0 37 -14.5t16 -40.5q0 -19 -5 -38t-12.5 -33.5t-15.5 -25t-15 -14.5q-3 -2 -7 -2q-3 0 -5 2q-6 3 -5 11q1 20 -2.5 34t-7 19t-10.5 12q-16 18 -16.5 38.5t14.5 36.5q15 15 34 15z" />
    <glyph glyph-name="quotesinglbase" unicode="&#x201a;" horiz-adv-x="148" 
d="M72 95q21 0 37 -14.5t16 -40.5q0 -35 -16.5 -69t-31.5 -42q-3 -2 -7 -2q-3 0 -5 2q-6 3 -5 11q1 21 -2.5 34.5t-7 18.5t-10.5 12q-16 18 -16.5 38.5t14.5 36.5q15 15 34 15z" />
    <glyph glyph-name="quotedblleft" unicode="&#x201c;" horiz-adv-x="283" 
d="M93 702q-1 -20 2.5 -34t7 -19t10.5 -12q16 -18 16.5 -38.5t-14.5 -36.5q-15 -15 -34 -15q-14 0 -25.5 5.5t-19.5 18.5t-8 32q0 23 8.5 48t19.5 41t20 21q3 2 7 2q3 0 5 -1q6 -4 5 -12zM238 637q17 -18 17.5 -38.5t-15.5 -36.5q-15 -15 -34 -15q-14 0 -25.5 5.5
t-19.5 18.5t-8 31.5t5 37.5t12.5 33.5t16 25.5t14.5 14q3 2 7 2q3 0 5 -1q6 -4 5 -12q0 -20 3 -34t6.5 -19t10.5 -12z" />
    <glyph glyph-name="quotedblright" unicode="&#x201d;" horiz-adv-x="283" 
d="M202 715q21 0 36.5 -14.5t15.5 -40.5q0 -19 -5 -38t-12.5 -33.5t-15.5 -25t-15 -14.5q-3 -2 -6 -2t-6 2q-5 3 -5 11q1 16 -0.5 27t-5 18.5t-6 11t-7.5 8.5q-17 18 -17.5 38.5t14.5 36.5q15 15 35 15zM76 715q21 0 37 -14.5t16 -40.5q0 -24 -8.5 -49t-19.5 -41t-20 -21
q-3 -2 -7 -2q-3 0 -5 2q-6 3 -5 11q1 20 -2.5 34t-7 19t-10.5 12q-16 18 -16.5 38.5t14.5 36.5q15 15 34 15z" />
    <glyph glyph-name="quotedblbase" unicode="&#x201e;" horiz-adv-x="274" 
d="M198 97q21 0 36.5 -14.5t15.5 -40.5q0 -35 -16.5 -69t-31.5 -42q-3 -2 -6 -2t-6 2q-5 3 -5 11q1 21 -2 34.5t-6.5 18.5t-10.5 12q-17 18 -17.5 38.5t14.5 36.5q15 15 35 15zM72 97q21 0 37 -14.5t16 -40.5q0 -35 -16.5 -69t-31.5 -42q-3 -2 -7 -2q-3 0 -5 2q-6 3 -5 11
q0 16 -1 27t-4.5 18.5t-6 11t-8.5 8.5q-16 18 -16.5 38.5t14.5 36.5q15 15 34 15z" />
    <glyph glyph-name="dagger" unicode="&#x2020;" horiz-adv-x="433" 
d="M265 538h138v-97h-138v-438h-97v438h-138v97h138v108h97v-108z" />
    <glyph glyph-name="bullet" unicode="&#x2022;" horiz-adv-x="172" 
d="M86 388q25 0 43 -18t18 -43t-18 -43t-43 -18t-43 18t-18 43t18 43t43 18z" />
    <glyph glyph-name="ellipsis" unicode="&#x2026;" horiz-adv-x="471" 
d="M70.5 -5q-20.5 0 -34.5 14t-14 34t14 34.5t34.5 14.5t34.5 -14.5t14 -34.5t-14 -34t-34.5 -14zM399.5 -5q-20.5 0 -34.5 14t-14 34t14 34.5t34.5 14.5t34.5 -14.5t14 -34.5t-14 -34t-34.5 -14zM238 -5q-20 0 -34 14t-14 34t14 34.5t34 14.5t34 -14.5t14 -34.5t-14 -34
t-34 -14z" />
    <glyph glyph-name="guilsinglleft" unicode="&#x2039;" horiz-adv-x="373" 
d="M335 417l-119 -92l119 -92l-72 -93l-237 183l2 3l-2 2l12 9l4 3l221 171z" />
    <glyph glyph-name="guilsinglright" unicode="&#x203a;" horiz-adv-x="373" 
d="M344 326l2 -3l-12 -9l-225 -174l-72 93l119 92l-119 92l72 94l237 -183z" />
    <glyph glyph-name="Euro" unicode="&#x20ac;" horiz-adv-x="665" 
d="M122 385v11h-88v74h92q16 98 92.5 163t176.5 65q108 0 187 -75l5 -5l-71 -96l-6 8q-45 49 -111 49h-10q-50 0 -90 -30.5t-54 -78.5h90v-74h-95v-21l32 -10h-32h-118h-55zM565 161l70 -94l-6 -5q-78 -75 -186 -75q-100 0 -176.5 66t-92.5 164h-92v74h48l-29 8h38l-101 18
h249v-1h1v-25h95v-74h-90q13 -49 53 -81t92 -32h9q67 0 111 50z" />
  </font>
</defs>
</svg>
